<?xml version="1.0" encoding="UTF-8"?>
<svg version="1.1" xmlns="http://www.w3.org/2000/svg" width="500" height="500">
<path d="M0 0 C2.48366956 -0.00435426 4.96733778 -0.00953977 7.45100403 -0.01548767 C13.46519487 -0.02743298 19.47932009 -0.03003831 25.49351677 -0.02768741 C30.38907225 -0.02589498 35.28461427 -0.02767355 40.18016815 -0.03191185 C40.88036718 -0.03250704 41.58056622 -0.03310223 42.3019834 -0.03371545 C43.7250465 -0.03492737 45.14810959 -0.0361415 46.57117268 -0.03735783 C59.87952195 -0.04820304 73.1878458 -0.04608536 86.49619648 -0.03997298 C98.62980915 -0.0348077 110.76334145 -0.0460544 122.89693823 -0.0650712 C135.40109964 -0.08451623 147.90522315 -0.0926939 160.40939975 -0.08894795 C167.41131917 -0.08704582 174.41317025 -0.08942598 181.41507721 -0.10366249 C188.00456492 -0.11692656 194.59391955 -0.11422645 201.18341637 -0.1012516 C203.58783461 -0.0989024 205.99226437 -0.10156028 208.39666939 -0.10987473 C239.95043304 -0.21103441 271.14192125 4.0631886 295.19042969 26.2746582 C295.85042969 26.87793945 296.51042969 27.4812207 297.19042969 28.1027832 C298.58460021 29.4324088 299.89970593 30.84439674 301.19042969 32.2746582 C301.19042969 32.9346582 301.19042969 33.5946582 301.19042969 34.2746582 C301.85042969 34.2746582 302.51042969 34.2746582 303.19042969 34.2746582 C303.19042969 34.9346582 303.19042969 35.5946582 303.19042969 36.2746582 C303.85042969 36.2746582 304.51042969 36.2746582 305.19042969 36.2746582 C321.41422253 55.57138941 327.12407753 81.00352044 327.80712891 105.66015625 C327.84472761 106.88349261 327.88232632 108.10682898 327.92106438 109.36723614 C328.45183688 128.17761937 328.33616728 147.00433223 328.32475519 165.82018876 C328.32218048 171.41289709 328.32458292 177.00560397 328.32614136 182.59831238 C328.32794765 191.97537537 328.32559679 201.35243041 328.32080078 210.72949219 C328.31535318 221.5035884 328.3171307 232.27766569 328.32262719 243.05176145 C328.32719305 252.382582 328.32779223 261.71339693 328.32518852 271.04421824 C328.32364574 276.58227039 328.32337625 282.1203137 328.32672501 287.65836525 C328.34712272 327.13539235 328.34712272 327.13539235 327.79150391 341.49609375 C327.75906649 342.37579488 327.72662907 343.25549601 327.69320869 344.16185474 C326.54432173 368.03981682 318.19682146 392.88175753 301.19042969 410.2746582 C300.53042969 410.2746582 299.87042969 410.2746582 299.19042969 410.2746582 C298.86042969 411.2646582 298.53042969 412.2546582 298.19042969 413.2746582 C297.53042969 413.2746582 296.87042969 413.2746582 296.19042969 413.2746582 C296.19042969 413.9346582 296.19042969 414.5946582 296.19042969 415.2746582 C294.31054402 416.9332025 292.43781008 418.45599208 290.44042969 419.9621582 C289.84842773 420.40914063 289.25642578 420.85612305 288.64648438 421.31665039 C261.1077546 441.77609069 230.21148701 442.43760922 197.1574707 442.40405273 C194.8886309 442.40541083 192.61979132 442.40719304 190.35095215 442.40936279 C184.23730331 442.41388886 178.12367151 442.4121675 172.0100224 442.40898371 C165.58162725 442.40643471 159.15323347 442.40880471 152.72483826 442.41036987 C141.24331322 442.41230022 129.76179682 442.40921121 118.28027313 442.40411054 C107.90779222 442.3996449 97.53532251 442.40041927 87.1628418 442.4050293 C75.06766056 442.41040259 62.9724881 442.41236121 50.87730545 442.40941703 C44.49307133 442.40786635 38.10884489 442.40762709 31.72461128 442.41095352 C25.7187054 442.41386476 19.71282045 442.41179739 13.70691681 442.40605927 C11.51654787 442.40474893 9.32617714 442.40509601 7.13580894 442.40732193 C-27.74271222 442.43946983 -27.74271222 442.43946983 -41.30957031 439.3996582 C-42.15358398 439.21749756 -42.99759766 439.03533691 -43.8671875 438.84765625 C-46.1851268 438.33867055 -48.49718538 437.80816 -50.80957031 437.2746582 C-51.77378906 437.07227539 -52.73800781 436.86989258 -53.73144531 436.66137695 C-65.68200649 433.71383921 -78.6596831 425.35835093 -87.80957031 417.2746582 C-87.80957031 416.6146582 -87.80957031 415.9546582 -87.80957031 415.2746582 C-88.46957031 415.2746582 -89.12957031 415.2746582 -89.80957031 415.2746582 C-89.80957031 414.6146582 -89.80957031 413.9546582 -89.80957031 413.2746582 C-90.79957031 412.9446582 -91.78957031 412.6146582 -92.80957031 412.2746582 C-92.80957031 411.6146582 -92.80957031 410.9546582 -92.80957031 410.2746582 C-93.46957031 410.2746582 -94.12957031 410.2746582 -94.80957031 410.2746582 C-94.80957031 409.6146582 -94.80957031 408.9546582 -94.80957031 408.2746582 C-95.46957031 408.2746582 -96.12957031 408.2746582 -96.80957031 408.2746582 C-103.79031971 400.51195113 -108.52414469 391.72257842 -112.80957031 382.2746582 C-113.32519531 381.16993164 -113.84082031 380.06520508 -114.37207031 378.92700195 C-116.03035881 374.71368742 -117.0178114 370.57210319 -117.93457031 366.1496582 C-118.18787109 364.97209961 -118.18787109 364.97209961 -118.44628906 363.77075195 C-118.90967036 361.60708968 -119.36443056 359.44214254 -119.80957031 357.2746582 C-119.97206835 356.5700156 -120.13456638 355.865373 -120.3019886 355.13937759 C-120.93858661 351.54650845 -121.17167474 347.96790561 -121.36398315 344.33026123 C-121.40611053 343.54405325 -121.44823791 342.75784526 -121.49164188 341.9478128 C-121.97298164 332.09641453 -121.94964828 322.24573494 -121.93896484 312.38500977 C-121.94032353 310.25058971 -121.94210607 308.11616988 -121.9442749 305.98175049 C-121.9487948 300.23771484 -121.94708199 294.49369737 -121.94389582 288.74966145 C-121.94134255 282.70084399 -121.94371807 276.65202797 -121.94528198 270.60321045 C-121.94709563 260.44583867 -121.94471912 250.28847419 -121.93994141 240.13110352 C-121.93450622 228.44208955 -121.9362593 216.75309306 -121.94176781 205.06407952 C-121.94632896 194.97598124 -121.9469347 184.88788817 -121.94432914 174.79978919 C-121.94278205 168.79773915 -121.94252894 162.79569726 -121.94586563 156.79364777 C-121.94878803 151.14311164 -121.94668978 145.49259767 -121.94097137 139.8420639 C-121.93966667 137.78721656 -121.93999806 135.7323673 -121.94223404 133.67752075 C-121.9524768 123.29444142 -121.83484596 112.92909561 -121.4069519 102.55389404 C-121.37397668 101.68194908 -121.34100146 100.81000412 -121.30702698 99.91163659 C-120.27873413 77.77457248 -113.93766817 53.19176348 -98.80957031 36.2746582 C-98.14957031 36.2746582 -97.48957031 36.2746582 -96.80957031 36.2746582 C-96.56722656 35.7074707 -96.32488281 35.1402832 -96.07519531 34.5559082 C-92.56655191 28.23168676 -86.08125089 22.79291804 -79.80957031 19.2746582 C-79.14957031 19.2746582 -78.48957031 19.2746582 -77.80957031 19.2746582 C-77.80957031 18.6146582 -77.80957031 17.9546582 -77.80957031 17.2746582 C-68.38965289 12.05129167 -59.2810321 7.07643946 -48.80957031 4.2746582 C-47.71708984 3.97495117 -47.71708984 3.97495117 -46.60253906 3.66918945 C-31.22406382 -0.12549924 -15.72923139 -0.01830624 0 0 Z " fill="#0291FE" transform="translate(146.8095703125,32.725341796875)"/>
<path d="M0 0 C4.42386616 3.89566402 8.52481449 8.0747341 12.55810547 12.37207031 C13.19103516 13.0359375 13.82396484 13.69980469 14.47607422 14.38378906 C19.81815203 20.21484424 24.21916724 26.77819903 28.55810547 33.37207031 C28.96899414 33.98735596 29.37988281 34.6026416 29.80322266 35.23657227 C45.90214031 60.01525397 50.94847327 92.78736125 44.99560547 121.49707031 C40.5263068 140.56787705 32.73637433 158.0341475 20.55810547 173.37207031 C19.93162109 174.20351563 19.30513672 175.03496094 18.65966797 175.89160156 C6.26049129 192.08377533 -9.00190144 204.04222825 -26.44189453 214.37207031 C-27.28236328 214.90574219 -28.12283203 215.43941406 -28.98876953 215.98925781 C-63.52036619 237.76899034 -108.2898837 243.53812672 -148.15991211 239.09716797 C-165.97132892 236.86049201 -165.97132892 236.86049201 -182.44189453 242.37207031 C-183.58608922 243.08224826 -184.73065486 243.79182873 -185.87548828 244.50097656 C-190.49833623 247.40200035 -195.04073594 250.41505256 -199.54736328 253.49316406 C-210.05486544 260.31382336 -221.91754638 263.99828772 -234.44189453 263.37207031 C-233.96341818 258.64882522 -232.89955711 256.1480752 -229.81689453 252.55957031 C-228.74181641 251.27373047 -228.74181641 251.27373047 -227.64501953 249.96191406 C-226.91798828 249.10726563 -226.19095703 248.25261719 -225.44189453 247.37207031 C-219.17545425 239.80619377 -216.23837058 234.70647585 -216.17626953 224.73925781 C-216.58386664 221.10684831 -217.60298648 219.05193791 -220.46630859 216.73144531 C-221.2884082 216.20035156 -222.11050781 215.66925781 -222.95751953 215.12207031 C-223.87267334 214.51943359 -224.78782715 213.91679687 -225.73071289 213.29589844 C-226.70790283 212.66103516 -227.68509277 212.02617187 -228.69189453 211.37207031 C-237.8743357 205.26484202 -246.35219764 198.85788842 -254.44189453 191.37207031 C-255.13025391 190.74171875 -255.81861328 190.11136719 -256.52783203 189.46191406 C-279.03729588 167.9200516 -294.99601504 136.7106677 -296.44189453 105.37207031 C-296.47589355 104.65470703 -296.50989258 103.93734375 -296.54492188 103.19824219 C-297.8692879 70.95631601 -286.33084074 40.77065318 -265.44189453 16.37207031 C-265.00022949 15.85596191 -264.55856445 15.33985352 -264.10351562 14.80810547 C-258.94739005 8.84627504 -253.59386871 3.30261428 -247.44189453 -1.62792969 C-246.24113281 -2.60246094 -246.24113281 -2.60246094 -245.01611328 -3.59667969 C-174.81416313 -58.4078204 -68.39678564 -58.1110822 0 0 Z " fill="#D7F0E6" transform="translate(373.44189453125,138.6279296875)"/>
<path d="M0 0 C4.33611891 5.2033427 6.02337959 11.63479348 8 18 C8.20334961 18.64179199 8.40669922 19.28358398 8.61621094 19.94482422 C17.93813309 50.62757128 11.28018158 84.35168831 -3.34375 112.23828125 C-6.48417963 117.47479952 -10.20837055 122.22463164 -14 127 C-14.62648438 127.83144531 -15.25296875 128.66289062 -15.8984375 129.51953125 C-28.29761418 145.71170502 -43.56000691 157.67015794 -61 168 C-61.84046875 168.53367187 -62.6809375 169.06734375 -63.546875 169.6171875 C-98.07847166 191.39692003 -142.84798917 197.16605641 -182.71801758 192.72509766 C-200.52943439 190.48842169 -200.52943439 190.48842169 -217 196 C-218.14419469 196.71017795 -219.28876033 197.41975842 -220.43359375 198.12890625 C-225.0564417 201.02993003 -229.59884141 204.04298224 -234.10546875 207.12109375 C-244.61297091 213.94175305 -256.47565185 217.62621741 -269 217 C-268.52518512 212.14554935 -267.30316512 209.54089332 -264.1875 205.8125 C-263.50042969 204.97332031 -262.81335938 204.13414062 -262.10546875 203.26953125 C-260.19070549 201.20556566 -258.31072177 199.59413839 -256 198 C-256.08517394 200.8959138 -256.54144519 202.54916126 -258.625 204.59765625 C-259.89976368 205.64368209 -261.19266546 206.66804871 -262.50390625 207.66796875 C-263.24447266 208.32732422 -263.24447266 208.32732422 -264 209 C-264 209.66 -264 210.32 -264 211 C-263.278125 210.38125 -262.55625 209.7625 -261.8125 209.125 C-259 207 -259 207 -256.5 206.0625 C-252.31928734 204.28569712 -249.8210591 200.92444063 -246.859375 197.58984375 C-246.08078125 196.71457031 -245.3021875 195.83929688 -244.5 194.9375 C-243.40171875 193.68259766 -243.40171875 193.68259766 -242.28125 192.40234375 C-240.00603481 190.00635515 -237.62470231 188.00087342 -235 186 C-238.48960758 193.56081643 -243.93634547 201.38145665 -251 206 C-250.505 206.99 -250.505 206.99 -250 208 C-248.53977837 207.04454634 -247.08188532 206.08553322 -245.625 205.125 C-244.81289062 204.59132813 -244.00078125 204.05765625 -243.1640625 203.5078125 C-240.92405904 202.04134945 -240.92405904 202.04134945 -239 200 C-238.401875 200.350625 -237.80375 200.70125 -237.1875 201.0625 C-234.89186786 202.33304698 -234.89186786 202.33304698 -232 201 C-232 200.34 -232 199.68 -232 199 C-231.05125 198.938125 -230.1025 198.87625 -229.125 198.8125 C-227.578125 198.4103125 -227.578125 198.4103125 -226 198 C-224.59742124 195.61880754 -224.59742124 195.61880754 -224 193 C-223.67 192.34 -223.34 191.68 -223 191 C-222.39671875 191.02320313 -221.7934375 191.04640625 -221.171875 191.0703125 C-220.37265625 191.08835937 -219.5734375 191.10640625 -218.75 191.125 C-217.96109375 191.14820313 -217.1721875 191.17140625 -216.359375 191.1953125 C-213.757506 190.97992599 -212.25870043 190.26673509 -210 189 C-203.95235006 186.77841431 -198.40321637 186.79157704 -192 187 C-192 187.66 -192 188.32 -192 189 C-186.59242296 189.28750692 -181.1847095 189.5722431 -175.77685547 189.85449219 C-173.93990203 189.95074894 -172.10298704 190.04774243 -170.26611328 190.14550781 C-167.61500836 190.28647812 -164.96377323 190.4247358 -162.3125 190.5625 C-161.50071289 190.60624756 -160.68892578 190.64999512 -159.85253906 190.69506836 C-150.12237393 191.38615287 -150.12237393 191.38615287 -140.5625 190 C-135.9482338 188.85849164 -131.74239497 188.84944778 -127 189 C-127.33 188.01 -127.66 187.02 -128 186 C-121.65714038 184.33082642 -115.6003324 183 -109 183 C-106.9533573 182.8121246 -104.92957899 182.55257051 -102.89453125 182.265625 C-101.49773896 182.06978608 -100.09334086 181.9264871 -98.6875 181.8125 C-95.84071025 180.44182345 -95.18688679 177.78918395 -94 175 C-93.05125 175.185625 -92.1025 175.37125 -91.125 175.5625 C-88.10131207 176.28686632 -88.10131207 176.28686632 -86 175 C-85.195625 175.061875 -84.39125 175.12375 -83.5625 175.1875 C-82.716875 175.125625 -81.87125 175.06375 -81 175 C-79.29467677 173.05990478 -79.29467677 173.05990478 -78 171 C-77.34 171 -76.68 171 -76 171 C-75.67 170.01 -75.34 169.02 -75 168 C-74.13375 167.9175 -73.2675 167.835 -72.375 167.75 C-67.20383278 166.60085173 -63.9314551 164.39718266 -61 160 C-60.34 160 -59.68 160 -59 160 C-59 160.66 -59 161.32 -59 162 C-58.01 162 -57.02 162 -56 162 C-55.67 161.01 -55.34 160.02 -55 159 C-53.68 159 -52.36 159 -51 159 C-50.87625 158.38125 -50.7525 157.7625 -50.625 157.125 C-50 155 -50 155 -48 153 C-46.68 153 -45.36 153 -44 153 C-43.67 152.34 -43.34 151.68 -43 151 C-42.01 151 -41.02 151 -40 151 C-40.33 150.01 -40.66 149.02 -41 148 C-35.25 143 -35.25 143 -33 143 C-32.690625 142.21625 -32.38125 141.4325 -32.0625 140.625 C-31 138 -31 138 -30 136 C-29.030625 135.7525 -28.06125 135.505 -27.0625 135.25 C-23.69520182 134.2895788 -23.69520182 134.2895788 -22.625 130.875 C-22.41875 129.92625 -22.2125 128.9775 -22 128 C-20.68 128 -19.36 128 -18 128 C-17.71125 127.2575 -17.4225 126.515 -17.125 125.75 C-16.568125 124.38875 -16.568125 124.38875 -16 123 C-15.71125 122.2575 -15.4225 121.515 -15.125 120.75 C-14 119 -14 119 -11.875 118.25 C-11.25625 118.1675 -10.6375 118.085 -10 118 C-8.53171515 112.56771648 -8.53171515 112.56771648 -8 107 C-7.01 107 -6.02 107 -5 107 C-4.67 106.01 -4.34 105.02 -4 104 C-3.34 104 -2.68 104 -2 104 C-1.87625 103.113125 -1.7525 102.22625 -1.625 101.3125 C-1.05227138 98.27703832 -0.19198038 95.83095341 1 93 C1.33723433 91.66764798 1.67014303 90.33419761 2 89 C2.44351218 87.57862361 2.90262471 86.16204656 3.375 84.75 C3.63796875 83.95851563 3.9009375 83.16703125 4.171875 82.3515625 C4.91703764 80.2355818 5.75717937 78.19245502 6.625 76.125 C8.4778526 71.13878935 8.80100451 66.28845578 9 61 C9.02723145 60.28763184 9.05446289 59.57526367 9.08251953 58.84130859 C9.48671606 46.5501751 8.44389349 35.04490363 6 23 C5.67 23 5.34 23 5 23 C5 19.7 5 16.4 5 13 C4.01 12.67 3.02 12.34 2 12 C0.65743047 7.68964518 0 4.52218352 0 0 Z " fill="#96DAE6" transform="translate(408,185)"/>
<path d="M0 0 C0.66 0.66 1.32 1.32 2 2 C-25.47867848 22.54821532 -56.08695108 23.16284136 -89.03295898 23.12939453 C-91.30179879 23.13075262 -93.57063837 23.13253484 -95.83947754 23.13470459 C-101.95312638 23.13923066 -108.06675818 23.13750929 -114.18040729 23.1343255 C-120.60880243 23.1317765 -127.03719622 23.13414651 -133.46559143 23.13571167 C-144.94711647 23.13764202 -156.42863287 23.134553 -167.91015656 23.12945233 C-178.28263747 23.1249867 -188.65510718 23.12576107 -199.02758789 23.13037109 C-211.12276912 23.13574439 -223.21794159 23.13770301 -235.31312424 23.13475883 C-241.69735836 23.13320814 -248.08158479 23.13296888 -254.46581841 23.13629532 C-260.47172428 23.13920656 -266.47760924 23.13713918 -272.48351288 23.13140106 C-274.67388182 23.13009073 -276.86425255 23.1304378 -279.05462074 23.13266373 C-313.82853856 23.16471521 -313.82853856 23.16471521 -327.875 20.0625 C-328.71417969 19.89298828 -329.55335938 19.72347656 -330.41796875 19.54882812 C-334.26750512 18.74146922 -337.51473651 17.87160701 -341 16 C-327.3667426 15.81548975 -327.3667426 15.81548975 -321 17 C-321 17.66 -321 18.32 -321 19 C-320.43829102 18.99476318 -319.87658203 18.98952637 -319.29785156 18.98413086 C-316.61524702 18.96263737 -313.93266047 18.95012004 -311.25 18.9375 C-310.36828125 18.92912109 -309.4865625 18.92074219 -308.578125 18.91210938 C-303.17503869 18.89334866 -297.80339576 19.04576713 -292.41053557 19.35384232 C-280.63184655 20.02043625 -268.87997509 20.17063715 -257.08496094 20.20532227 C-254.97366152 20.21493166 -252.8623639 20.22494337 -250.75106812 20.23532104 C-245.08715554 20.26204523 -239.42323491 20.28322784 -233.75929546 20.30332303 C-227.81495941 20.32538624 -221.87064725 20.35267418 -215.92633057 20.37937927 C-204.70014814 20.42903416 -193.47395227 20.47407239 -182.24774384 20.51740164 C-169.45427908 20.5670085 -156.66083831 20.62183867 -143.86739683 20.67708123 C-117.578287 20.79048294 -91.28915409 20.89741087 -65 21 C-65 20.34 -65 19.68 -65 19 C-64.40461426 18.97494385 -63.80922852 18.9498877 -63.19580078 18.92407227 C-60.50530864 18.80822506 -57.8151766 18.68544804 -55.125 18.5625 C-53.71927734 18.50352539 -53.71927734 18.50352539 -52.28515625 18.44335938 C-51.38925781 18.40146484 -50.49335938 18.35957031 -49.5703125 18.31640625 C-48.32918701 18.26141968 -48.32918701 18.26141968 -47.06298828 18.20532227 C-44.93820571 18.11761673 -44.93820571 18.11761673 -43 17 C-40.43918358 16.76641202 -37.87994966 16.61836931 -35.3125 16.4765625 C-32.62972596 16.20613439 -32.62972596 16.20613439 -31 13 C-29.03750513 12.9345835 -27.07137939 12.8821709 -25.109375 12.9609375 C-22.32855665 13.01243414 -19.71995014 12.54399003 -17 12 C-17 11.01 -17 10.02 -17 9 C-15.68 9 -14.36 9 -13 9 C-13 8.34 -13 7.68 -13 7 C-9.535 6.505 -9.535 6.505 -6 6 C-6 4.35 -6 2.7 -6 1 C-5.34 1.66 -4.68 2.32 -4 3 C-3.01 3 -2.02 3 -1 3 C-0.67 2.01 -0.34 1.02 0 0 Z " fill="#61AEE2" transform="translate(433,452)"/>
<path d="M0 0 C2.21161814 3.31742721 2.97623656 6.02788896 4 9.875 C4.33 11.08929688 4.66 12.30359375 5 13.5546875 C7.35862102 23.38373403 8.33737746 33.30260388 8.61669922 43.38549805 C8.65429792 44.60883441 8.69189663 45.83217077 8.73063469 47.09257793 C9.26140719 65.90296116 9.1457376 84.72967403 9.1343255 103.54553056 C9.13175079 109.13823888 9.13415323 114.73094577 9.13571167 120.32365417 C9.13751796 129.70071716 9.13516711 139.07777221 9.13037109 148.45483398 C9.1249235 159.22893019 9.12670101 170.00300749 9.1321975 180.77710325 C9.13676336 190.1079238 9.13736254 199.43873873 9.13475883 208.76956004 C9.13321606 214.30761219 9.13294657 219.8456555 9.13629532 225.38370705 C9.15669303 264.86073415 9.15669303 264.86073415 8.60107422 279.22143555 C8.5686368 280.10113667 8.53619938 280.9808378 8.50277901 281.88719654 C7.63996515 299.81954077 3.05370726 318.00581116 -7 333 C-8 330 -8 330 -7 327 C-6.34 327 -5.68 327 -5 327 C-5 325.35 -5 323.7 -5 322 C-4.01 322 -3.02 322 -2 322 C-1.67 318.04 -1.34 314.08 -1 310 C-0.34 310 0.32 310 1 310 C0.94779297 308.98679687 0.94779297 308.98679687 0.89453125 307.953125 C0.86746094 307.06109375 0.84039062 306.1690625 0.8125 305.25 C0.77769531 304.36828125 0.74289062 303.4865625 0.70703125 302.578125 C1 300 1 300 2.48632812 298.17773438 C4.35976006 295.48240973 4.42120388 293.83666039 4.51171875 290.578125 C4.54716797 289.55332031 4.58261719 288.52851563 4.61914062 287.47265625 C4.64169922 286.40917969 4.66425781 285.34570312 4.6875 284.25 C4.72166016 283.17105469 4.75582031 282.09210938 4.79101562 280.98046875 C4.87340663 278.32041623 4.94258645 275.66068965 5 273 C5.66 273 6.32 273 7 273 C6.89286886 244.23696522 6.78012704 215.47395719 6.66066074 186.71097088 C6.60532512 173.35655768 6.55184256 160.0021425 6.50268555 146.64770508 C6.45984788 135.01130287 6.41357093 123.37492037 6.36312145 111.73854858 C6.33651717 105.57420171 6.31166398 99.40985875 6.29092598 93.24548912 C6.27136904 87.44831644 6.24722804 81.65118127 6.21950912 75.85404205 C6.2101337 73.72189577 6.20246019 71.58974126 6.19658089 69.45758247 C6.18832809 66.55527299 6.17405366 63.65305474 6.15821838 60.7507782 C6.15724028 59.89961715 6.15626217 59.0484561 6.15525442 58.17150229 C6.13190468 54.86252374 6.05369898 52.16109693 5 49 C4.87535061 47.4533658 4.79898799 45.90255652 4.75390625 44.3515625 C4.72240479 43.43455566 4.69090332 42.51754883 4.65844727 41.57275391 C4.62678467 40.59999512 4.59512207 39.62723633 4.5625 38.625 C4.17557219 28.71932618 3.41116331 19.18553099 0.875 9.5625 C0.05201999 6.21179568 -0.17152185 3.43043703 0 0 Z " fill="#56A7E2" transform="translate(466,95)"/>
<path d="M0 0 C0.33 0 0.66 0 1 0 C1.02756807 2.72923859 1.04710499 5.45818539 1.0625 8.1875 C1.07087891 8.93708984 1.07925781 9.68667969 1.08789062 10.45898438 C1.10602339 14.7927148 0.92197951 19.03647827 0.50672913 23.35050964 C-0.31067185 33.74919253 -0.17853442 44.17431328 -0.20532227 54.59887695 C-0.21491511 56.9751502 -0.22492599 59.35142178 -0.23532104 61.72769165 C-0.26222388 68.14612794 -0.28331209 74.56457148 -0.30332303 80.98303246 C-0.32258957 87.02100647 -0.34716306 93.05895989 -0.37124526 99.09691622 C-0.41876586 111.04693909 -0.4620715 122.99697329 -0.50268555 134.94702148 C-0.54211994 146.54729085 -0.58356485 158.1475502 -0.62768555 169.74780273 C-0.63040982 170.46425326 -0.63313409 171.18070379 -0.63594092 171.91886494 C-0.6496217 175.51350799 -0.66334172 179.10815089 -0.67708123 182.70279372 C-0.79080165 212.46850814 -0.89759342 242.2342444 -1 272 C-1.33 272 -1.66 272 -2 272 C-2.89988408 258.69109401 -3.14384378 245.44688982 -3.12939453 232.11035156 C-3.13075322 229.9759315 -3.13253575 227.84151168 -3.13470459 225.70709229 C-3.13922449 219.96305664 -3.13751167 214.21903916 -3.1343255 208.47500324 C-3.13177223 202.42618579 -3.13414776 196.37736977 -3.13571167 190.32855225 C-3.13752532 180.17118047 -3.1351488 170.01381598 -3.13037109 159.85644531 C-3.12493591 148.16743135 -3.12668899 136.47843486 -3.1321975 124.78942132 C-3.13675865 114.70132304 -3.13736439 104.61322997 -3.13475883 94.52513099 C-3.13321174 88.52308094 -3.13295863 82.52103906 -3.13629532 76.51898956 C-3.13921772 70.86845344 -3.13711946 65.21793947 -3.13140106 59.5674057 C-3.13009635 57.51255835 -3.13042775 55.45770909 -3.13266373 53.40286255 C-3.14298069 42.94456617 -3.0128311 32.50997083 -2.55831909 22.06048584 C-2.52010705 21.15921471 -2.48189501 20.25794358 -2.44252503 19.3293612 C-2.1265413 12.77348166 -1.39593855 6.4240279 0 0 Z " fill="#5DACE5" transform="translate(28,113)"/>
<path d="M0 0 C2.48366956 -0.00435426 4.96733778 -0.00953977 7.45100403 -0.01548767 C13.46519487 -0.02743298 19.47932009 -0.03003831 25.49351677 -0.02768741 C30.38907225 -0.02589498 35.28461427 -0.02767355 40.18016815 -0.03191185 C40.88036718 -0.03250704 41.58056622 -0.03310223 42.3019834 -0.03371545 C43.7250465 -0.03492737 45.14810959 -0.0361415 46.57117268 -0.03735783 C59.87952195 -0.04820304 73.1878458 -0.04608536 86.49619648 -0.03997298 C98.62980915 -0.0348077 110.76334145 -0.0460544 122.89693823 -0.0650712 C135.40109964 -0.08451623 147.90522315 -0.0926939 160.40939975 -0.08894795 C167.41131917 -0.08704582 174.41317025 -0.08942598 181.41507721 -0.10366249 C188.00456492 -0.11692656 194.59391955 -0.11422645 201.18341637 -0.1012516 C203.58783461 -0.0989024 205.99226437 -0.10156028 208.39666939 -0.10987473 C225.77086658 -0.16557547 242.49215509 0.87621932 259.25292969 5.8371582 C260.00896484 6.0453418 260.765 6.25352539 261.54394531 6.46801758 C266.9187642 8.00299271 266.9187642 8.00299271 269.19042969 10.2746582 C266.50292969 10.9621582 266.50292969 10.9621582 263.19042969 11.2746582 C261.51882571 10.28293349 259.85279845 9.28178673 258.19042969 8.2746582 C250.36165304 5.84503787 242.35252154 4.74900823 234.19042969 4.2746582 C234.19042969 3.6146582 234.19042969 2.9546582 234.19042969 2.2746582 C205.80020401 2.20565699 177.40998853 2.15284306 149.01969495 2.12146221 C145.63910639 2.11771179 142.258518 2.11382865 138.87792969 2.10986328 C138.20514518 2.10907635 137.53236068 2.10828942 136.83918877 2.10747864 C126.72610178 2.09535542 116.61306027 2.07430946 106.5 2.04833984 C94.70901529 2.01807633 82.91806966 1.99899939 71.12704718 1.99239272 C64.90594165 1.98854175 58.68494772 1.97974672 52.46387863 1.95746803 C24.06237482 1.85973517 -4.13941379 2.42579137 -32.47079468 4.53105164 C-33.29314346 4.59059646 -34.11549224 4.65014129 -34.96276069 4.71149051 C-39.01716901 4.96241525 -39.01716901 4.96241525 -42.80957031 6.2746582 C-45.48193241 6.40881293 -48.1320752 6.31784361 -50.80957031 6.2746582 C-47.74405159 3.20913948 -43.94466696 3.01241228 -39.80957031 2.2746582 C-38.84338398 2.1012431 -37.87719765 1.92782801 -36.88173294 1.74915791 C-24.61494124 -0.15229074 -12.38816003 -0.01441778 0 0 Z " fill="#3E90CA" transform="translate(146.8095703125,32.725341796875)"/>
<path d="M0 0 C-3.21237053 1.07079018 -4.9395555 0.95713639 -8.0625 -0.3125 C-8.73410156 -0.57675781 -9.40570313 -0.84101562 -10.09765625 -1.11328125 C-12 -2 -12 -2 -15 -4 C-20.22142913 -6.16498281 -25.42184454 -6.58108714 -31 -7 C-31 -7.66 -31 -8.32 -31 -9 C-31.72445312 -9.03738281 -32.44890625 -9.07476562 -33.1953125 -9.11328125 C-38.96924084 -9.50590838 -42.82073121 -10.35281817 -48 -13 C-49.99064999 -13.03159762 -51.9835281 -13.0605564 -53.97265625 -12.9765625 C-57.87293555 -13.02165243 -61.53663637 -14.26831818 -65 -16 C-66.34750268 -16.09891575 -67.69967104 -16.13826286 -69.05078125 -16.14526367 C-69.88504639 -16.15164352 -70.71931152 -16.15802338 -71.57885742 -16.16459656 C-72.48095947 -16.16570938 -73.38306152 -16.1668222 -74.3125 -16.16796875 C-75.23716064 -16.17129715 -76.16182129 -16.17462555 -77.11450195 -16.17805481 C-79.07144675 -16.18312221 -81.02840021 -16.18546319 -82.98535156 -16.18530273 C-85.98777394 -16.18749109 -88.98983009 -16.20565386 -91.9921875 -16.22460938 C-93.89062374 -16.22754289 -95.78906173 -16.22952797 -97.6875 -16.23046875 C-98.58960205 -16.23765427 -99.4917041 -16.24483978 -100.42114258 -16.25224304 C-101.25540771 -16.24916641 -102.08967285 -16.24608978 -102.94921875 -16.24291992 C-104.05269653 -16.24505745 -104.05269653 -16.24505745 -105.1784668 -16.24723816 C-107.25048317 -16.15323539 -107.25048317 -16.15323539 -109 -14 C-109.66 -13.67 -110.32 -13.34 -111 -13 C-111 -13.66 -111 -14.32 -111 -15 C-111.515625 -14.690625 -112.03125 -14.38125 -112.5625 -14.0625 C-116.79061236 -12.21947666 -121.32462718 -12.07625177 -125.875 -11.5625 C-128.89579082 -11.17900117 -131.88532733 -10.70472819 -134.875 -10.125 C-135.98488281 -9.91230469 -135.98488281 -9.91230469 -137.1171875 -9.6953125 C-139.37815785 -9.07015783 -139.37815785 -9.07015783 -141 -6 C-141.94875 -6.226875 -142.8975 -6.45375 -143.875 -6.6875 C-148.17661551 -7.32445321 -151.56039188 -6.12723157 -155.62109375 -4.76953125 C-158.38415684 -3.87573252 -161.12363013 -3.37846972 -164 -3 C-129.17160105 -37.82839895 -36.92456176 -17.84873076 0 0 Z " fill="#C0F3FB" transform="translate(335,114)"/>
<path d="M0 0 C0 6.23706848 -6.81424364 12.56195148 -11 17 C-13.375 18.9375 -13.375 18.9375 -15 20 C-14.67 20.66 -14.34 21.32 -14 22 C-12.53977837 21.04454634 -11.08188532 20.08553322 -9.625 19.125 C-8.81289062 18.59132813 -8.00078125 18.05765625 -7.1640625 17.5078125 C-4.92405904 16.04134945 -4.92405904 16.04134945 -3 14 C-2.401875 14.350625 -1.80375 14.70125 -1.1875 15.0625 C1.10813214 16.33304698 1.10813214 16.33304698 4 15 C4 16.65 4 18.3 4 20 C-8.06668592 26.4467954 -18.97547398 31.7012263 -33 31 C-32.52518512 26.14554935 -31.30316512 23.54089332 -28.1875 19.8125 C-27.50042969 18.97332031 -26.81335938 18.13414062 -26.10546875 17.26953125 C-24.19070549 15.20556566 -22.31072177 13.59413839 -20 12 C-20.08517394 14.8959138 -20.54144519 16.54916126 -22.625 18.59765625 C-23.89976368 19.64368209 -25.19266546 20.66804871 -26.50390625 21.66796875 C-26.99761719 22.10753906 -27.49132812 22.54710937 -28 23 C-28 23.66 -28 24.32 -28 25 C-27.278125 24.38125 -26.55625 23.7625 -25.8125 23.125 C-23 21 -23 21 -20.5 20.0625 C-17.23888495 18.6765261 -15.32221224 16.58487892 -13 14 C-12.28199219 13.20464844 -11.56398437 12.40929687 -10.82421875 11.58984375 C-9.27229753 9.86520462 -7.72514662 8.13625677 -6.18359375 6.40234375 C-4.18155465 4.19974259 -2.1234909 2.08496952 0 0 Z " fill="#B0DBD2" transform="translate(172,371)"/>
<path d="M0 0 C0.99 0.33 1.98 0.66 3 1 C3 1.66 3 2.32 3 3 C3.66 3.33 4.32 3.66 5 4 C6.2890625 5.55859375 6.2890625 5.55859375 7.625 7.4375 C8.07101563 8.05496094 8.51703125 8.67242187 8.9765625 9.30859375 C10 11 10 11 10 13 C10.5775 13.061875 11.155 13.12375 11.75 13.1875 C14.94710041 14.34200848 16.1436532 16.21547979 18 19 C18 19.99 18 20.98 18 22 C18.928125 22.04125 19.85625 22.0825 20.8125 22.125 C21.864375 22.41375 22.91625 22.7025 24 23 C25.01691264 24.99145391 26.01642648 26.99187074 27 29 C28.010625 29.33 29.02125 29.66 30.0625 30 C31.031875 30.33 32.00125 30.66 33 31 C34.1875 34.0625 34.1875 34.0625 35 37 C35.99 37.33 36.98 37.66 38 38 C38 38.66 38 39.32 38 40 C38.99 39.67 39.98 39.34 41 39 C41.268125 39.639375 41.53625 40.27875 41.8125 40.9375 C42.88667752 43.33131686 42.88667752 43.33131686 46 44 C46 44.66 46 45.32 46 46 C46.928125 46.144375 47.85625 46.28875 48.8125 46.4375 C52 47 52 47 55 48 C55.99 48 56.98 48 58 48 C58.495 50.475 58.495 50.475 59 53 C60.98 53.66 62.96 54.32 65 55 C66.52494731 62.43411812 66.26612568 69.56151161 65 77 C63.515 77.495 63.515 77.495 62 78 C62.165 77.38125 62.33 76.7625 62.5 76.125 C63.43252641 70.29670996 64.20367407 64.18769407 61 59 C58.9563467 57.2838122 58.9563467 57.2838122 56.484375 55.75 C55.56922119 55.14736328 54.65406738 54.54472656 53.71118164 53.92382812 C52.7339917 53.28896484 51.75680176 52.65410156 50.75 52 C41.56755883 45.89277171 33.08969689 39.48581811 25 32 C24.31164062 31.36964844 23.62328125 30.73929687 22.9140625 30.08984375 C14.00340344 21.56222207 6.68086168 11.3292755 0 1 C0 0.67 0 0.34 0 0 Z " fill="#98D6E5" transform="translate(94,298)"/>
<path d="M0 0 C0.7890625 1.6796875 0.7890625 1.6796875 1 4 C-10.33413511 18.96871008 -28.91991304 29.98939765 -45.6875 37.5625 C-46.47858154 37.92166504 -47.26966309 38.28083008 -48.0847168 38.65087891 C-50.0289536 39.4999591 -52.01222739 40.25854603 -54 41 C-54.66 40.67 -55.32 40.34 -56 40 C-54.625 38 -54.625 38 -53 36 C-52.34 36 -51.68 36 -51 36 C-50.67 35.01 -50.34 34.02 -50 33 C-49.13375 32.9175 -48.2675 32.835 -47.375 32.75 C-42.20383278 31.60085173 -38.9314551 29.39718266 -36 25 C-35.34 25 -34.68 25 -34 25 C-34 25.66 -34 26.32 -34 27 C-33.01 27 -32.02 27 -31 27 C-30.67 26.01 -30.34 25.02 -30 24 C-28.68 24 -27.36 24 -26 24 C-25.87625 23.38125 -25.7525 22.7625 -25.625 22.125 C-25 20 -25 20 -23 18 C-21.68 18 -20.36 18 -19 18 C-18.67 17.34 -18.34 16.68 -18 16 C-17.01 16 -16.02 16 -15 16 C-15.495 14.515 -15.495 14.515 -16 13 C-10.25 8 -10.25 8 -8 8 C-7.690625 7.21625 -7.38125 6.4325 -7.0625 5.625 C-6 3 -6 3 -5 1 C-2.4375 0.375 -2.4375 0.375 0 0 Z " fill="#97DDE4" transform="translate(383,320)"/>
<path d="M0 0 C28.67665403 -0.02335978 57.35330663 -0.04099433 86.02996826 -0.05181217 C99.34501547 -0.05696857 112.66005423 -0.06399881 125.97509766 -0.07543945 C137.58040146 -0.08540629 149.18570098 -0.0918582 160.79100895 -0.09408849 C166.93596489 -0.09539219 173.08090858 -0.09845658 179.2258606 -0.10573006 C185.01071814 -0.11252178 190.79555839 -0.11461052 196.58041954 -0.11310768 C198.7024107 -0.11338259 200.82440244 -0.115369 202.94639015 -0.11920547 C205.84693098 -0.12419193 208.74740683 -0.12298001 211.64794922 -0.12025452 C212.90284448 -0.12462378 212.90284448 -0.12462378 214.18309116 -0.12908131 C219.2081551 -0.11634821 224.02497004 0.28264518 229 1 C229 1.66 229 2.32 229 3 C227.29175867 3.02735618 225.58338595 3.04655506 223.875 3.0625 C222.92367187 3.07410156 221.97234375 3.08570313 220.9921875 3.09765625 C218 3 218 3 215.36110497 2.50378513 C211.28739188 1.89318948 207.34272806 1.8467637 203.23013306 1.84178162 C202.35929341 1.83684364 201.48845376 1.83190566 200.59122503 1.82681805 C197.68012194 1.81148896 194.76904082 1.80309488 191.85791016 1.79467773 C189.7683798 1.7850956 187.67885137 1.77508533 185.58932495 1.76467896 C179.92045188 1.73766015 174.25157052 1.71663419 168.58266878 1.69667697 C162.65693432 1.67479878 156.73122536 1.64741905 150.80551147 1.62062073 C139.58594681 1.57071865 128.36636797 1.52577058 117.1467756 1.48259836 C104.37298114 1.43320477 91.59921226 1.3782945 78.82544255 1.32291877 C52.55031891 1.20913686 26.27517072 1.10228955 0 1 C0 0.67 0 0.34 0 0 Z " fill="#168DE7" transform="translate(152,34)"/>
<path d="M0 0 C13.6332574 -0.18451025 13.6332574 -0.18451025 20 1 C20 1.66 20 2.32 20 3 C20.56170898 2.99476318 21.12341797 2.98952637 21.70214844 2.98413086 C24.38475298 2.96263737 27.06733953 2.95012004 29.75 2.9375 C31.07257813 2.92493164 31.07257813 2.92493164 32.421875 2.91210938 C37.75165919 2.89360318 43.04986563 3.03925051 48.36922836 3.34816837 C61.65396749 4.10849789 74.93112036 4.22127069 88.234375 4.31640625 C90.69444072 4.33703572 93.15450338 4.35803347 95.61456299 4.37937927 C102.01924115 4.4339824 108.42394793 4.48365801 114.82867432 4.53222656 C121.3923185 4.58289924 127.95592229 4.63834381 134.51953125 4.69335938 C147.34631928 4.80018282 160.17314204 4.90195141 173 5 C173 5.33 173 5.66 173 6 C158.53176995 6.02369687 144.06354258 6.04115498 129.59529686 6.05181217 C122.87260602 6.05689903 116.14992995 6.0639241 109.42724609 6.07543945 C57.96603228 6.16073731 57.96603228 6.16073731 37.53813553 5.73226738 C35.99648709 5.70066025 34.45474844 5.67309858 32.91294479 5.65028572 C9.24467483 5.27655725 9.24467483 5.27655725 0 0 Z " fill="#1B88D9" transform="translate(92,468)"/>
<path d="M0 0 C0.6942659 -0.00414413 1.3885318 -0.00828827 2.10383606 -0.01255798 C4.3492261 -0.02220814 6.59443622 -0.0222205 8.83984375 -0.01953125 C9.60145813 -0.01959167 10.36307251 -0.0196521 11.14776611 -0.01971436 C20.34607247 -0.00928901 29.49150193 0.12186034 38.65234375 1.04296875 C39.4400415 1.12135986 40.22773926 1.19975098 41.03930664 1.28051758 C44.70690073 1.71134319 47.55249071 2.39882691 50.77734375 4.16796875 C53.3202242 4.74644392 55.866312 5.17242656 58.4375 5.60546875 C60.77734375 6.16796875 60.77734375 6.16796875 63.77734375 8.16796875 C59.62320355 7.60977452 55.50687475 6.94507739 51.3828125 6.1953125 C38.20746512 3.90223034 25.43743916 2.77235599 12.08984375 2.79296875 C11.04333145 2.7906575 11.04333145 2.7906575 9.97567749 2.78829956 C-0.22600014 2.79085558 -10.13091652 3.71511897 -20.22265625 5.16796875 C-21.49435669 5.34175049 -21.49435669 5.34175049 -22.79174805 5.51904297 C-24.60340772 5.76730983 -26.41320456 6.02909038 -28.22265625 6.29296875 C-29.37765625 6.46054688 -30.53265625 6.628125 -31.72265625 6.80078125 C-32.54765625 6.92195313 -33.37265625 7.043125 -34.22265625 7.16796875 C-32.22265625 4.16796875 -32.22265625 4.16796875 -30.19140625 3.7265625 C-29.37671875 3.68660156 -28.56203125 3.64664063 -27.72265625 3.60546875 C-21.6927092 3.17787482 -15.90462015 2.04195373 -10.02880859 0.6472168 C-6.65025844 0.07021193 -3.42816564 0.02021042 0 0 Z " fill="#168CE2" transform="translate(236.22265625,92.83203125)"/>
<path d="M0 0 C0.33 0 0.66 0 1 0 C0.67 12.21 0.34 24.42 0 37 C0.66 37 1.32 37 2 37 C2.13277344 37.67546875 2.26554687 38.3509375 2.40234375 39.046875 C2.57894531 39.93890625 2.75554687 40.8309375 2.9375 41.75 C3.11152344 42.63171875 3.28554687 43.5134375 3.46484375 44.421875 C3.77425917 45.91248945 4.10593459 47.39954859 4.49609375 48.87109375 C5 51 5 51 5.5078125 54.36328125 C6.81424897 62.72282092 8.79923538 69.70403108 12.75048828 77.21411133 C13.56290951 78.77846349 14.28874781 80.38713105 15 82 C14.67 82.99 14.34 83.98 14 85 C0.79115269 58.51675279 -6.72999627 29.56391217 0 0 Z " fill="#AEEAF7" transform="translate(79,212)"/>
<path d="M0 0 C0.66 0 1.32 0 2 0 C6.58255658 16.09483286 0.03503995 38.75741966 -7.65234375 53.078125 C-9.04731182 55.42823591 -10.4782765 57.73048797 -12 60 C-13 57 -13 57 -12 54 C-11.34 54 -10.68 54 -10 54 C-10 52.35 -10 50.7 -10 49 C-9.01 49 -8.02 49 -7 49 C-6.67 45.04 -6.34 41.08 -6 37 C-5.34 37 -4.68 37 -4 37 C-4.03480469 36.32453125 -4.06960938 35.6490625 -4.10546875 34.953125 C-4.13253906 34.06109375 -4.15960938 33.1690625 -4.1875 32.25 C-4.22230469 31.36828125 -4.25710938 30.4865625 -4.29296875 29.578125 C-4 27 -4 27 -2.51367188 25.17773438 C-0.64023994 22.48240973 -0.57879612 20.83666039 -0.48828125 17.578125 C-0.45283203 16.55332031 -0.41738281 15.52851563 -0.38085938 14.47265625 C-0.35830078 13.40917969 -0.33574219 12.34570312 -0.3125 11.25 C-0.27833984 10.17105469 -0.24417969 9.09210938 -0.20898438 7.98046875 C-0.12659337 5.32041623 -0.05741355 2.66068965 0 0 Z " fill="#339BE7" transform="translate(471,368)"/>
<path d="M0 0 C2.62955389 0.01004946 5.25911148 0.01917183 7.88867188 0.02734375 C14.28003003 0.04920228 20.67124733 0.08252425 27.0625 0.125 C27.0625 0.455 27.0625 0.785 27.0625 1.125 C25.98282959 1.1751123 24.90315918 1.22522461 23.79077148 1.27685547 C-3.04539697 2.52451872 -3.04539697 2.52451872 -29.86618042 4.06134033 C-31.84950944 4.18589912 -33.83307965 4.30659781 -35.81665039 4.42724609 C-37.5915686 4.54253662 -37.5915686 4.54253662 -39.40234375 4.66015625 C-40.94329712 4.75889038 -40.94329712 4.75889038 -42.51538086 4.85961914 C-44.94473203 4.98397528 -44.94473203 4.98397528 -46.9375 6.125 C-49.6098621 6.25915472 -52.26000488 6.16818541 -54.9375 6.125 C-51.87037402 3.05787402 -48.07305004 2.86794339 -43.9375 2.125 C-43.0192041 1.94984863 -42.1009082 1.77469727 -41.15478516 1.59423828 C-27.52651185 -0.60903688 -13.76372225 -0.09179856 0 0 Z " fill="#429DDD" transform="translate(150.9375,32.875)"/>
<path d="M0 0 C5.37085555 2.79392991 9.31782201 5.89871765 13.5 10.25 C14.06750977 10.83136719 14.63501953 11.41273438 15.21972656 12.01171875 C16.8238516 13.66462097 18.41443853 15.32930771 20 17 C20.68578125 17.71671875 21.3715625 18.4334375 22.078125 19.171875 C27.36742114 24.95549789 31.65907523 31.49674192 36 38 C36.54398437 38.804375 37.08796875 39.60875 37.6484375 40.4375 C39.93186438 43.92203582 41.60145063 46.74880674 42 51 C40.68 50.34 39.36 49.68 38 49 C38 48.34 38 47.68 38 47 C37.01 46.67 36.02 46.34 35 46 C34.0625 44 34.0625 44 33 41 C31.95107368 38.65510294 30.87917292 36.32156162 29.8046875 33.98828125 C29 32 29 32 29 30 C28.01 29.67 27.02 29.34 26 29 C24.62464661 27.02866014 23.29788956 25.02318078 22 23 C19.12506848 19.07878192 16.27870842 16.36454939 12 14 C10.375 12.5 10.375 12.5 9 11 C8.1646875 10.2265625 8.1646875 10.2265625 7.3125 9.4375 C6 8 6 8 6 6 C4.68 5.67 3.36 5.34 2 5 C2 4.01 2 3.02 2 2 C1.34 2 0.68 2 0 2 C0 1.34 0 0.68 0 0 Z " fill="#B6F1F9" transform="translate(366,134)"/>
<path d="M0 0 C3.14906415 1.41602213 5.49523672 3.13735082 8.0625 5.4375 C8.73410156 6.03433594 9.40570313 6.63117187 10.09765625 7.24609375 C10.72542969 7.82488281 11.35320312 8.40367188 12 9 C12.57621094 9.52722656 13.15242188 10.05445313 13.74609375 10.59765625 C15 12 15 12 15 14 C15.66 14 16.32 14 17 14 C17 14.66 17 15.32 17 16 C17.66 16 18.32 16 19 16 C20.54198918 17.90552297 21.93709254 19.79090521 23.3125 21.8125 C23.71259277 22.39692871 24.11268555 22.98135742 24.52490234 23.58349609 C27.95149267 28.7088092 31.20149609 34.06700433 33 40 C32.67 40.99 32.34 41.98 32 43 C29.2251789 41.61258945 29.19250364 40.1409892 28.1875 37.25 C26.46393693 32.73681818 24.51642067 30.34488796 21 27 C19.63380243 24.73912438 18.4081499 22.44018739 17.2109375 20.0859375 C15.99922129 17.99865861 14.85337718 16.53957787 13 15 C12.34 15 11.68 15 11 15 C10.67 13.35 10.34 11.7 10 10 C9.401875 9.87625 8.80375 9.7525 8.1875 9.625 C6 9 6 9 3 7 C2.67 6.01 2.34 5.02 2 4 C1.34 3.67 0.68 3.34 0 3 C0 2.01 0 1.02 0 0 Z " fill="#47A2E4" transform="translate(433,53)"/>
<path d="M0 0 C0.99 0.33 1.98 0.66 3 1 C3 1.66 3 2.32 3 3 C3.66 3.33 4.32 3.66 5 4 C6.2890625 5.55859375 6.2890625 5.55859375 7.625 7.4375 C8.07101563 8.05496094 8.51703125 8.67242187 8.9765625 9.30859375 C10 11 10 11 10 13 C10.5775 13.061875 11.155 13.12375 11.75 13.1875 C14.94710041 14.34200848 16.1436532 16.21547979 18 19 C18 19.99 18 20.98 18 22 C18.928125 22.04125 19.85625 22.0825 20.8125 22.125 C21.864375 22.41375 22.91625 22.7025 24 23 C25.01691264 24.99145391 26.01642648 26.99187074 27 29 C28.010625 29.33 29.02125 29.66 30.0625 30 C31.031875 30.33 32.00125 30.66 33 31 C34.1875 34.0625 34.1875 34.0625 35 37 C35.99 37.33 36.98 37.66 38 38 C38 38.66 38 39.32 38 40 C21.49573305 35.37975788 8.80824037 14.85125614 0 1 C0 0.67 0 0.34 0 0 Z " fill="#B7E6DF" transform="translate(94,298)"/>
<path d="M0 0 C-5.00346797 2.3810506 -9.52562804 3.65660055 -15.0625 4.1875 C-15.8474585 4.26718018 -16.63241699 4.34686035 -17.44116211 4.42895508 C-25.63562055 5.14806534 -33.84296593 5.18419874 -42.0625 5.1875 C-42.73846222 5.18849701 -43.41442444 5.18949402 -44.11087036 5.19052124 C-55.62280562 5.18859719 -55.62280562 5.18859719 -58 4 C-60.85306062 3.72641885 -63.70570456 3.55374758 -66.56640625 3.37890625 C-67.36949219 3.25386719 -68.17257813 3.12882812 -69 3 C-69.33 2.34 -69.66 1.68 -70 1 C-68.43378906 1.10828125 -68.43378906 1.10828125 -66.8359375 1.21875 C-48.49361909 2.41277904 -30.73124823 2.44082962 -12.47851562 -0.02050781 C-10.9074707 -0.22885254 -10.9074707 -0.22885254 -9.3046875 -0.44140625 C-7.9122583 -0.63778687 -7.9122583 -0.63778687 -6.49169922 -0.83813477 C-4.05085776 -0.99669619 -2.31411229 -0.74191104 0 0 Z " fill="#1991E0" transform="translate(290,376)"/>
<path d="M0 0 C0.66 0.66 1.32 1.32 2 2 C-13.08957825 13.28379966 -28.4024159 19.06910329 -47 21 C-47 20.34 -47 19.68 -47 19 C-43.09025009 16.73598203 -39.67592743 16.64533197 -35.2421875 16.44140625 C-34.50226563 16.29574219 -33.76234375 16.15007812 -33 16 C-32.34 15.01 -31.68 14.02 -31 13 C-29.03750513 12.9345835 -27.07137939 12.8821709 -25.109375 12.9609375 C-22.32855665 13.01243414 -19.71995014 12.54399003 -17 12 C-17 11.01 -17 10.02 -17 9 C-15.68 9 -14.36 9 -13 9 C-13 8.34 -13 7.68 -13 7 C-9.535 6.505 -9.535 6.505 -6 6 C-6 4.35 -6 2.7 -6 1 C-5.34 1.66 -4.68 2.32 -4 3 C-3.01 3 -2.02 3 -1 3 C-0.67 2.01 -0.34 1.02 0 0 Z " fill="#3599E4" transform="translate(433,452)"/>
<path d="M0 0 C0.33 0 0.66 0 1 0 C1.02756807 2.72923859 1.04710499 5.45818539 1.0625 8.1875 C1.07087891 8.93708984 1.07925781 9.68667969 1.08789062 10.45898438 C1.10672575 14.96057884 0.9087299 19.3862445 0.51367188 23.87109375 C-0.0762813 31.33577455 -0.2230367 38.78501738 -0.31640625 46.26953125 C-0.33704521 47.68585214 -0.35804309 49.10216784 -0.37937927 50.51847839 C-0.43388504 54.19914474 -0.48360135 57.87985981 -0.53222656 61.56060791 C-0.58297279 65.33536988 -0.63837801 69.11006338 -0.69335938 72.88476562 C-0.80006274 80.25645201 -0.90169264 87.62819635 -1 95 C-1.33 95 -1.66 95 -2 95 C-2.04652837 84.38541148 -2.08197277 73.7708476 -2.10362434 63.15617752 C-2.11402079 58.22631453 -2.12810362 53.29652179 -2.15087891 48.36669922 C-2.17275586 43.6010037 -2.18459968 38.83537537 -2.18975449 34.06963348 C-2.19342376 32.25975234 -2.20058821 30.44987449 -2.21146011 28.64002228 C-2.26763668 18.89248863 -2.11946269 9.57520706 0 0 Z " fill="#2189D6" transform="translate(28,113)"/>
<path d="M0 0 C0.66 0.33 1.32 0.66 2 1 C0.77801556 2.58888299 -0.45294475 4.17086464 -1.6875 5.75 C-2.37199219 6.63171875 -3.05648437 7.5134375 -3.76171875 8.421875 C-5.9986546 10.99845032 -8.22008404 13.02685899 -11 15 C-11.66 15 -12.32 15 -13 15 C-13.1546875 16.1446875 -13.1546875 16.1446875 -13.3125 17.3125 C-14.0690983 20.27011154 -14.81772825 20.99230999 -17 23 C-18.17574711 25.09989652 -18.17574711 25.09989652 -19 27 C-19.99 27 -20.98 27 -22 27 C-22.2475 27.763125 -22.495 28.52625 -22.75 29.3125 C-24.10995558 32.2364045 -25.31585826 33.30004356 -28 35 C-26.51217153 28.71805757 -22.73394339 24.11655923 -19 19 C-18.34 18.01 -17.68 17.02 -17 16 C-16.34 16 -15.68 16 -15 16 C-14.64035156 15.15115234 -14.64035156 15.15115234 -14.2734375 14.28515625 C-12.73639857 11.52697289 -10.87656882 9.6479272 -8.625 7.4375 C-7.46871094 6.29087891 -7.46871094 6.29087891 -6.2890625 5.12109375 C-4.27286711 3.25284444 -2.23393837 1.59639888 0 0 Z " fill="#389EE5" transform="translate(65,53)"/>
<path d="M0 0 C1.80486278 2.70729416 2.39853622 4.04135746 3.0703125 7.08984375 C3.24433594 7.87423828 3.41835938 8.65863281 3.59765625 9.46679688 C3.77167969 10.28212891 3.94570313 11.09746094 4.125 11.9375 C4.39763672 13.15469727 4.39763672 13.15469727 4.67578125 14.39648438 C5.48128465 18.08787025 6 21.1846071 6 25 C6.66 25 7.32 25 8 25 C12.40774487 36.52164009 12.40774487 36.52164009 13 42 C3.21836078 32.98514182 0.11488478 16.63370215 -1.01953125 3.85546875 C-1 2 -1 2 0 0 Z " fill="#44A2E4" transform="translate(28,384)"/>
<path d="M0 0 C13.6332574 -0.18451025 13.6332574 -0.18451025 20 1 C20 1.66 20 2.32 20 3 C20.56170898 2.99476318 21.12341797 2.98952637 21.70214844 2.98413086 C35.17320276 2.87619848 48.55340025 3.18328678 62 4 C62 4.33 62 4.66 62 5 C56.15082493 5.07507333 50.30194033 5.129031 44.45239258 5.16479492 C42.46926986 5.17972977 40.48617927 5.20008507 38.50317383 5.22631836 C9.97412077 5.59383079 9.97412077 5.59383079 0 0 Z " fill="#158CE7" transform="translate(92,468)"/>
<path d="M0 0 C9.28693122 13.93039683 9.12008964 36.09932768 7 52 C4.89578449 48.84367674 4.7384975 47.97399753 4.65625 44.3515625 C4.62797119 43.43455566 4.59969238 42.51754883 4.57055664 41.57275391 C4.5356311 40.11361572 4.5356311 40.11361572 4.5 38.625 C4.15758621 28.70386266 3.41520293 19.20085864 0.875 9.5625 C0.05201999 6.21179568 -0.17152185 3.43043703 0 0 Z " fill="#41A1E4" transform="translate(466,95)"/>
<path d="M0 0 C0.33 0 0.66 0 1 0 C1.03440186 0.86987549 1.06880371 1.73975098 1.10424805 2.63598633 C2.00174773 23.70148674 3.62613953 42.81881666 12.85229492 62.10546875 C13.61882446 63.71381385 14.31640154 65.35469315 15 67 C14.505 67.99 14.505 67.99 14 69 C13.38125 67.948125 13.38125 67.948125 12.75 66.875 C11.02036395 63.95206272 11.02036395 63.95206272 8.9375 61.125 C6.84253387 57.74602238 6.03727593 54.82746775 5 51 C4.48759766 49.37191406 4.48759766 49.37191406 3.96484375 47.7109375 C-0.87186717 32.00541992 -0.12932949 16.27362878 0 0 Z " fill="#2594DA" transform="translate(76,224)"/>
<path d="M0 0 C0.99 0 1.98 0 3 0 C3 0.66 3 1.32 3 2 C4.32 2.33 5.64 2.66 7 3 C6.360625 3.12375 5.72125 3.2475 5.0625 3.375 C4.381875 3.58125 3.70125 3.7875 3 4 C2.67 4.66 2.34 5.32 2 6 C1.34 6 0.68 6 0 6 C-0.33 6.99 -0.66 7.98 -1 9 C-3.63992276 10.39158719 -6.19645787 11.59862016 -8.9375 12.75 C-9.67935547 13.07871094 -10.42121094 13.40742188 -11.18554688 13.74609375 C-13.09534251 14.56680375 -15.0459895 15.29096738 -17 16 C-17.66 15.67 -18.32 15.34 -19 15 C-17.625 13 -17.625 13 -16 11 C-15.34 11 -14.68 11 -14 11 C-13.67 10.01 -13.34 9.02 -13 8 C-12.13375 7.9175 -11.2675 7.835 -10.375 7.75 C-6.46755744 6.88167943 -4.12649571 5.47211289 -1 3 C-0.67 2.01 -0.34 1.02 0 0 Z " fill="#AAE0D3" transform="translate(346,345)"/>
<path d="M0 0 C14.7747073 -0.65076199 28.83859847 1.67319682 43.0625 5.5625 C43.83045898 5.77221436 44.59841797 5.98192871 45.38964844 6.19799805 C50.74021221 7.74021221 50.74021221 7.74021221 53 10 C50.3125 10.6875 50.3125 10.6875 47 11 C45.32839602 10.00827529 43.66236877 9.00712852 42 8 C34.17122336 5.57037966 26.16209185 4.47435003 18 4 C18 3.34 18 2.68 18 2 C12.06 1.67 6.12 1.34 0 1 C0 0.67 0 0.34 0 0 Z " fill="#5DAEE2" transform="translate(363,33)"/>
<path d="M0 0 C0.99 0 1.98 0 3 0 C3.73828125 1.68359375 3.73828125 1.68359375 4 4 C2.41796875 6.47265625 2.41796875 6.47265625 0.1875 9.0625 C-2.02922624 11.67156717 -4.09878291 14.14817436 -6 17 C-6.66 17 -7.32 17 -8 17 C-8.33 17.99 -8.66 18.98 -9 20 C-9.66 20 -10.32 20 -11 20 C-11 20.66 -11 21.32 -11 22 C-12.95927063 23.7143618 -14.95880212 25.38405168 -17 27 C-17.66 26.67 -18.32 26.34 -19 26 C-19 25.34 -19 24.68 -19 24 C-18.34 23.67 -17.68 23.34 -17 23 C-17 22.34 -17 21.68 -17 21 C-15.989375 20.525625 -14.97875 20.05125 -13.9375 19.5625 C-9.7248436 17.1907402 -7.28689909 13.88950401 -4.48046875 10.0234375 C-3 8 -3 8 -1 6 C-0.95936168 4.33382885 -0.957279 2.66611905 -1 1 C-0.67 0.67 -0.34 0.34 0 0 Z " fill="#4FAADF" transform="translate(454,426)"/>
<path d="M0 0 C0.495 0.99 0.495 0.99 1 2 C-0.16965847 4.20696086 -1.38155482 6.23203874 -2.75 8.3125 C-3.15178467 8.93189453 -3.55356934 9.55128906 -3.9675293 10.18945312 C-7.35836525 15.29157023 -11.1360188 19.9745155 -15.19238281 24.55981445 C-17.34944914 27.00218812 -19.24169927 29.37934015 -20.99609375 32.1328125 C-23.14086971 35.20155627 -25.13924674 36.8284518 -28.25 38.875 C-29.14203125 39.47054687 -30.0340625 40.06609375 -30.953125 40.6796875 C-31.62859375 41.11539063 -32.3040625 41.55109375 -33 42 C-33.66 41.67 -34.32 41.34 -35 41 C-34.3709375 40.443125 -33.741875 39.88625 -33.09375 39.3125 C-32.2378125 38.549375 -31.381875 37.78625 -30.5 37 C-29.6646875 36.2575 -28.829375 35.515 -27.96875 34.75 C-21.08353666 28.43405076 -15.14733657 21.90592804 -9.6875 14.3125 C-9.08099609 13.48427734 -8.47449219 12.65605469 -7.84960938 11.80273438 C-5.05437507 7.96197788 -2.33741672 4.1432188 0 0 Z " fill="#2593DA" transform="translate(405,295)"/>
<path d="M0 0 C0.763125 0.350625 1.52625 0.70125 2.3125 1.0625 C5.04759379 2.32360884 5.04759379 2.32360884 8 1 C8 2.32 8 3.64 8 5 C6.02 5.33 4.04 5.66 2 6 C2 6.66 2 7.32 2 8 C-1.82989106 9.80230168 -4.78121808 10.19622241 -9 10 C-9 9.01 -9 8.02 -9 7 C-7.28515625 5.68359375 -7.28515625 5.68359375 -5.0625 4.4375 C-1.93912598 2.79661289 -1.93912598 2.79661289 0 0 Z " fill="#B8E5D4" transform="translate(168,385)"/>
<path d="M0 0 C4.35587197 -0.02501826 8.71170407 -0.04300806 13.06762695 -0.05493164 C14.5445224 -0.05991084 16.02141305 -0.06669663 17.49829102 -0.07543945 C41.00455706 -0.21094523 41.00455706 -0.21094523 47 3 C49.54288045 3.57847517 52.08896825 4.00445781 54.66015625 4.4375 C57 5 57 5 60 7 C55.76253197 6.41803014 51.5437022 5.76356217 47.32421875 5.0625 C31.52250298 2.50128878 16.00333873 1.23144088 0 1 C0 0.67 0 0.34 0 0 Z " fill="#3398D7" transform="translate(240,94)"/>
<path d="M0 0 C-0.33 1.65 -0.66 3.3 -1 5 C-1.99 5.33 -2.98 5.66 -4 6 C-4.28617188 6.59296875 -4.57234375 7.1859375 -4.8671875 7.796875 C-6.39802048 10.7740812 -8.48474595 12.21903535 -11.125 14.25 C-12.03507813 14.95640625 -12.94515625 15.6628125 -13.8828125 16.390625 C-14.58148438 16.92171875 -15.28015625 17.4528125 -16 18 C-16.33 17.01 -16.66 16.02 -17 15 C-14.42215154 12.35247996 -12.08351902 10.05567935 -9 8 C-8.855625 7.38125 -8.71125 6.7625 -8.5625 6.125 C-7.2903287 1.31901954 -4.73949393 0 0 0 Z " fill="#E7F6F4" transform="translate(160,379)"/>
<path d="M0 0 C2.97 0 5.94 0 9 0 C9 0.66 9 1.32 9 2 C10.60875 1.9071875 10.60875 1.9071875 12.25 1.8125 C16.42342744 2.02117137 16.89109006 2.53115975 20 5 C21.34164313 5.47451799 22.69843821 5.90690287 24.0625 6.3125 C29.79336652 8.08906862 34.82431723 11.01068042 40 14 C39.34 14.33 38.68 14.66 38 15 C35.13971217 13.88075693 32.36130092 12.69556226 29.5625 11.4375 C19.90920794 7.21715565 10.09429726 3.98420434 0 1 C0 0.67 0 0.34 0 0 Z " fill="#2695E0" transform="translate(300,101)"/>
<path d="M0 0 C2.64 0.33 5.28 0.66 8 1 C6.50755576 5.55038944 2.80696182 7.38125668 -1.0625 9.75 C-1.71283203 10.16121094 -2.36316406 10.57242187 -3.03320312 10.99609375 C-7.82847539 14 -7.82847539 14 -9 14 C-9 12.02 -9 10.04 -9 8 C-7.576875 7.9071875 -7.576875 7.9071875 -6.125 7.8125 C-5.09375 7.544375 -4.0625 7.27625 -3 7 C-1.59742124 4.61880754 -1.59742124 4.61880754 -1 2 C-0.67 1.34 -0.34 0.68 0 0 Z " fill="#A5DCD8" transform="translate(185,376)"/>
<path d="M0 0 C2.59223409 2.50843342 4.86160587 5.03618921 7 7.9375 C10.70718813 12.79407834 14.80929723 17.22107761 19 21.65795898 C22.90382488 25.80764976 22.90382488 25.80764976 24 28 C20.03935893 26.25731793 16.25563451 23.85325271 13 21 C13 20.34 13 19.68 13 19 C12.01 18.67 11.02 18.34 10 18 C8.00603743 15.33916031 6 12.38757675 6 9 C5.01 8.67 4.02 8.34 3 8 C0 2.77777778 0 2.77777778 0 0 Z " fill="#1E92E1" transform="translate(98,305)"/>
<path d="M0 0 C3 1 3 1 3.9375 2.8125 C4.288125 3.534375 4.63875 4.25625 5 5 C5.8971875 5.804375 5.8971875 5.804375 6.8125 6.625 C9.59579191 9.64685979 11.07213426 12.90682386 12.828125 16.59765625 C14.01076177 19.13224923 14.01076177 19.13224923 15.8125 21.875 C17 24 17 24 17 28 C17.66 28 18.32 28 19 28 C19 29.98 19 31.96 19 34 C16.48190164 31.48190164 15.79184004 29.13598382 14.5 25.8125 C11.57710659 18.59128985 7.52990761 12.43981105 3.07421875 6.08203125 C1 3 1 3 0 0 Z " fill="#1F90DD" transform="translate(394,160)"/>
<path d="M0 0 C0.33 0 0.66 0 1 0 C1.33 2.97 1.66 5.94 2 9 C0.68 9.33 -0.64 9.66 -2 10 C-3.39238047 11.86747263 -3.39238047 11.86747263 -4 14 C-3.67 14.66 -3.34 15.32 -3 16 C-3.33 16.66 -3.66 17.32 -4 18 C-5.65 17.67 -7.3 17.34 -9 17 C-7.46933687 11.18348012 -4.32262613 4.32262613 0 0 Z " fill="#D2F4F6" transform="translate(99,167)"/>
<path d="M0 0 C5.94 0 11.88 0 18 0 C18 0.66 18 1.32 18 2 C15.0780231 3.46098845 12.50106525 3.11134901 9.2421875 3.09765625 C8.24761032 3.09553383 8.24761032 3.09553383 7.23294067 3.09336853 C5.11358137 3.08776754 2.99432741 3.075215 0.875 3.0625 C-0.56119639 3.05748512 -1.99739444 3.05292219 -3.43359375 3.04882812 C-6.95576345 3.03779782 -10.47787145 3.02053259 -14 3 C-14 2.67 -14 2.34 -14 2 C-9.38 2 -4.76 2 0 2 C0 1.34 0 0.68 0 0 Z " fill="#3196E1" transform="translate(368,471)"/>
<path d="M0 0 C-12.06668592 6.4467954 -22.97547398 11.7012263 -37 11 C-36.67 10.34 -36.34 9.68 -36 9 C-33.45058627 8.68758629 -30.99638487 8.48696579 -28.4375 8.375 C-27.72658203 8.33632813 -27.01566406 8.29765625 -26.28320312 8.2578125 C-24.52257575 8.16328217 -22.76132272 8.08054183 -21 8 C-21 7.34 -21 6.68 -21 6 C-19.43840941 5.51787786 -17.87568072 5.03944127 -16.3125 4.5625 C-15.44238281 4.29566406 -14.57226562 4.02882813 -13.67578125 3.75390625 C-11.12974079 3.03655471 -8.5996577 2.482459 -6 2 C-6 1.34 -6 0.68 -6 0 C-3.50907189 -1.24546405 -2.58919267 -0.7767578 0 0 Z " fill="#8AD4E8" transform="translate(176,391)"/>
<path d="M0 0 C2.46278801 2.46278801 2.99771255 4.70676982 4 8 C3.21625 8.53625 2.4325 9.0725 1.625 9.625 C-1.33426299 12.30242842 -2.04608256 14.18433025 -3 18 C-3.66 18 -4.32 18 -5 18 C-5.33 19.98 -5.66 21.96 -6 24 C-6.33 24 -6.66 24 -7 24 C-6.46870624 18.02798909 -5.15389059 13.05383257 -2.9375 7.5 C-2.65583984 6.77296875 -2.37417969 6.0459375 -2.08398438 5.296875 C-1.39741552 3.52808745 -0.69986318 1.76356959 0 0 Z " fill="#38A0E9" transform="translate(36,88)"/>
<path d="M0 0 C4.48997278 1.37193613 6.17141948 3.35021868 9 7 C10.32567199 7.68177416 11.65753688 8.35191436 13 9 C14 12 14 12 13.0625 14.1875 C12.711875 14.785625 12.36125 15.38375 12 16 C11.67 15.34 11.34 14.68 11 14 C10.34 14 9.68 14 9 14 C7.36860063 12.07412421 5.86276775 10.15673283 4.375 8.125 C3.95476563 7.56941406 3.53453125 7.01382812 3.1015625 6.44140625 C0 2.26235288 0 2.26235288 0 0 Z " fill="#1592EB" transform="translate(41,427)"/>
<path d="M0 0 C2.72502965 -0.37722015 2.72502965 -0.37722015 5 -1 C2.69262524 2.2177062 -0.03961189 2.65278131 -3.8046875 3.33007812 C-4.89136719 3.50700195 -4.89136719 3.50700195 -6 3.6875 C-6.72445313 3.81705078 -7.44890625 3.94660156 -8.1953125 4.08007812 C-11.16646661 4.59811145 -13.97907661 5 -17 5 C-17.33 4.01 -17.66 3.02 -18 2 C-15.33557572 1.322604 -12.66933329 0.65737312 -10 0 C-9.113125 -0.226875 -8.22625 -0.45375 -7.3125 -0.6875 C-4.6389775 -1.04878682 -2.63209632 -0.52641926 0 0 Z " fill="#B0E1D3" transform="translate(298,369)"/>
<path d="M0 0 C0.33 0 0.66 0 1 0 C1.05012431 3.92858919 1.08605502 7.85704984 1.10986328 11.78588867 C1.12464917 13.76552896 1.15008592 15.74508063 1.17578125 17.72460938 C1.25452551 33.27660162 1.25452551 33.27660162 -1 40 C-1.99 40.99 -2.98 41.98 -4 43 C-3.01 34.09 -3.01 34.09 -2 25 C-1.34 25 -0.68 25 0 25 C0 16.75 0 8.5 0 0 Z " fill="#9BDDF0" transform="translate(419,221)"/>
<path d="M0 0 C3.99180567 2.07736826 6.00434996 3.98647967 8.25 7.875 C9.00023437 9.13957031 9.00023437 9.13957031 9.765625 10.4296875 C10.99242446 12.98422561 11.57981263 15.20875532 12 18 C10.68 17.34 9.36 16.68 8 16 C8 15.34 8 14.68 8 14 C7.01 13.67 6.02 13.34 5 13 C4 10.8125 4 10.8125 3 8 C2.46375 6.948125 1.9275 5.89625 1.375 4.8125 C0 2 0 2 0 0 Z " fill="#B5ECEF" transform="translate(396,167)"/>
<path d="M0 0 C3 1 3 1 3.875 2.75 C4.05079401 5.91429221 2.67282481 7.31153156 1 10 C-0.9396771 14.8945123 -2.32912211 19.76715246 -3 25 C-3.33 25 -3.66 25 -4 25 C-3.67 19.39 -3.34 13.78 -3 8 C-2.34 7.67 -1.68 7.34 -1 7 C-0.59270772 4.67843403 -0.25561323 2.3431213 0 0 Z " fill="#D4F6F5" transform="translate(83,204)"/>
<path d="M0 0 C0.66 0.33 1.32 0.66 2 1 C1.43152344 1.60585937 0.86304687 2.21171875 0.27734375 2.8359375 C-6.88902266 10.61246199 -12.94938765 18.70687328 -18 28 C-19 26 -19 26 -18.1875 22.4375 C-17 19 -17 19 -15 18 C-14.67 17.01 -14.34 16.02 -14 15 C-12.5625 13.3125 -12.5625 13.3125 -11 12 C-10.34 12 -9.68 12 -9 12 C-8.773125 11.29875 -8.54625 10.5975 -8.3125 9.875 C-6.50141965 5.90787162 -4.0021836 2.0010918 0 0 Z " fill="#2391DA" transform="translate(111,150)"/>
<path d="M0 0 C4.12751449 0.60698743 7.3321148 2.03810791 11 4 C11 4.66 11 5.32 11 6 C12.32 6 13.64 6 15 6 C15.33 6.66 15.66 7.32 16 8 C17.88013106 9.12224855 17.88013106 9.12224855 20.0625 10.125 C20.79597656 10.47820312 21.52945313 10.83140625 22.28515625 11.1953125 C23.13400391 11.59363281 23.13400391 11.59363281 24 12 C21.7184977 12.78584378 20.4548901 13.15881733 18.140625 12.35083008 C17.51671875 11.99400146 16.8928125 11.63717285 16.25 11.26953125 C15.5590625 10.87830078 14.868125 10.48707031 14.15625 10.08398438 C13.08890625 9.45459961 13.08890625 9.45459961 12 8.8125 C11.2884375 8.41224609 10.576875 8.01199219 9.84375 7.59960938 C6.06811999 5.42650889 2.91458015 3.30167283 0 0 Z " fill="#5EB0E2" transform="translate(66,454)"/>
<path d="M0 0 C0.66 0.33 1.32 0.66 2 1 C1.38125 1.70125 0.7625 2.4025 0.125 3.125 C-2.0532068 6.07198567 -2.93274901 8.52903057 -4 12 C-3.154375 11.86722656 -2.30875 11.73445313 -1.4375 11.59765625 C4.700297 10.64211285 10.83070189 9.72579978 17 9 C17 9.66 17 10.32 17 11 C9.66258031 13.3479743 2.65606218 13.19355213 -5 13 C-6.20085419 8.56372337 -6.20085419 8.56372337 -5.29296875 6.015625 C-2.22222222 1.11111111 -2.22222222 1.11111111 0 0 Z " fill="#2592DE" transform="translate(143,390)"/>
<path d="M0 0 C0.66 0 1.32 0 2 0 C1.61139184 2.37202385 1.30737569 3.69347107 -0.41796875 5.4140625 C-6.1666841 9.34806196 -10.88457649 11.33882969 -18 11 C-14.83129076 8.43594783 -11.54355796 6.69966973 -7.875 4.9375 C-3.60649256 2.93643744 -3.60649256 2.93643744 0 0 Z " fill="#128FE6" transform="translate(178,388)"/>
<path d="M0 0 C0.33 0 0.66 0 1 0 C1.1050173 10.39671302 1.02472362 20.64297197 0 31 C-2.40891809 27.38662287 -2.30456514 24.73673338 -2.25 20.5625 C-2.24613281 19.85544922 -2.24226563 19.14839844 -2.23828125 18.41992188 C-2.13667913 12.16010253 -1.29930287 6.12528496 0 0 Z " fill="#5BADE4" transform="translate(28,113)"/>
<path d="M0 0 C0.33 1.32 0.66 2.64 1 4 C0.4225 4.48210937 -0.155 4.96421875 -0.75 5.4609375 C-1.4925 6.09257812 -2.235 6.72421875 -3 7.375 C-3.7425 8.00148438 -4.485 8.62796875 -5.25 9.2734375 C-5.8275 9.84320313 -6.405 10.41296875 -7 11 C-7 11.66 -7 12.32 -7 13 C-5.35 11.68 -3.7 10.36 -2 9 C-1.34 9.33 -0.68 9.66 0 10 C-5.95412844 15.27752294 -5.95412844 15.27752294 -10 16 C-10.66 16.66 -11.32 17.32 -12 18 C-11.47892655 13.59456087 -9.94541773 11.25330255 -7.125 7.875 C-6.42632812 7.02679688 -5.72765625 6.17859375 -5.0078125 5.3046875 C-3.39633717 3.45493956 -1.76635044 1.6996957 0 0 Z " fill="#BAE7F7" transform="translate(151,383)"/>
<path d="M0 0 C5.55429293 2.52807504 10.70328633 6.46060239 13.5 11.9375 C13.665 12.618125 13.83 13.29875 14 14 C13.01 14.33 12.02 14.66 11 15 C10.67 13.35 10.34 11.7 10 10 C9.401875 9.87625 8.80375 9.7525 8.1875 9.625 C6 9 6 9 3 7 C2.67 6.01 2.34 5.02 2 4 C1.34 3.67 0.68 3.34 0 3 C0 2.01 0 1.02 0 0 Z " fill="#2C96E4" transform="translate(433,53)"/>
<path d="M0 0 C0.33 0 0.66 0 1 0 C1.2780211 7.08953806 0.58875661 14.07615946 -1 21 C-1.66 21.66 -2.32 22.32 -3 23 C-3.8473813 25.30911405 -4.52421344 27.64474673 -5.21875 30.00390625 C-6 32 -6 32 -8 33 C-7.82984375 32.3915625 -7.6596875 31.783125 -7.484375 31.15625 C-5.87921594 25.35035553 -4.34863219 19.5279505 -2.875 13.6875 C-2.70452148 13.01847656 -2.53404297 12.34945313 -2.35839844 11.66015625 C-1.38956453 7.79252507 -0.59889775 3.94172498 0 0 Z " fill="#2896DC" transform="translate(419,250)"/>
<path d="M0 0 C13.6332574 -0.18451025 13.6332574 -0.18451025 20 1 C20 1.99 20 2.98 20 4 C20.99 4.33 21.98 4.66 23 5 C20.47818712 4.71542568 17.95778804 4.42254942 15.4375 4.125 C14.73302734 4.04636719 14.02855469 3.96773438 13.30273438 3.88671875 C8.6868291 3.33366097 4.43823397 2.38804164 0 1 C0 0.67 0 0.34 0 0 Z " fill="#43A3E5" transform="translate(92,468)"/>
<path d="M0 0 C0.99 0.33 1.98 0.66 3 1 C4.52494731 8.43411812 4.26612568 15.56151161 3 23 C2.01 23.33 1.02 23.66 0 24 C0.165 23.38125 0.33 22.7625 0.5 22.125 C1.47758487 16.01509454 1.87640202 10.55483304 -1 5 C-0.625 2.25 -0.625 2.25 0 0 Z " fill="#A9DDEB" transform="translate(156,352)"/>
<path d="M0 0 C11.22 0 22.44 0 34 0 C34 0.66 34 1.32 34 2 C36.31 2.33 38.62 2.66 41 3 C40.34 3.66 39.68 4.32 39 5 C32.25 3.125 32.25 3.125 30 2 C27.75025839 1.84504237 25.49628464 1.74989072 23.2421875 1.68359375 C22.57913605 1.66281265 21.91608459 1.64203156 21.23294067 1.62062073 C19.11373306 1.55520769 16.994401 1.49627895 14.875 1.4375 C13.43878919 1.39430691 12.00259098 1.35069236 10.56640625 1.30664062 C7.04440406 1.19953501 3.52226175 1.09824425 0 1 C0 0.67 0 0.34 0 0 Z " fill="#CEF8FC" transform="translate(240,96)"/>
<path d="M0 0 C0.66 0 1.32 0 2 0 C2 0.99 2 1.98 2 3 C1.34 3 0.68 3 0 3 C-0.33 5.64 -0.66 8.28 -1 11 C-2.32 11 -3.64 11 -5 11 C-5.2475 11.763125 -5.495 12.52625 -5.75 13.3125 C-7.10995558 16.2364045 -8.31585826 17.30004356 -11 19 C-9.51217153 12.71805757 -5.73394339 8.11655923 -2 3 C-1.34 2.01 -0.68 1.02 0 0 Z " fill="#5BADEC" transform="translate(48,69)"/>
<path d="M0 0 C-0.66386719 0.59167969 -1.32773438 1.18335938 -2.01171875 1.79296875 C-7.62159676 6.77400123 -7.62159676 6.77400123 -13 12 C-15 14 -15 14 -17 15 C-17 13.02 -17 11.04 -17 9 C-15.68 9 -14.36 9 -13 9 C-13 8.01 -13 7.02 -13 6 C-11.68 6 -10.36 6 -9 6 C-9 4.68 -9 3.36 -9 2 C-8.01 2 -7.02 2 -6 2 C-6 1.34 -6 0.68 -6 0 C-2.25 -1.125 -2.25 -1.125 0 0 Z " fill="#2694E0" transform="translate(130,135)"/>
<path d="M0 0 C0.66 0.33 1.32 0.66 2 1 C0.68 1.33 -0.64 1.66 -2 2 C-2 2.66 -2 3.32 -2 4 C-6.29241444 5.50496238 -10.55554429 6.66008527 -15 7.625 C-16.175625 7.88539063 -17.35125 8.14578125 -18.5625 8.4140625 C-21.79069874 8.96432365 -24.7342517 9.10952205 -28 9 C-25.0976986 7.44538976 -22.28956162 6.41225308 -19.12109375 5.52734375 C-18.20005859 5.26759766 -17.27902344 5.00785156 -16.33007812 4.74023438 C-15.37552734 4.47533203 -14.42097656 4.21042969 -13.4375 3.9375 C-11.54022474 3.40544635 -9.64308332 2.8729151 -7.74609375 2.33984375 C-6.48817017 1.98974243 -6.48817017 1.98974243 -5.20483398 1.63256836 C-3.45705428 1.13112918 -1.72498047 0.57499349 0 0 Z " fill="#2493DB" transform="translate(318,366)"/>
<path d="M0 0 C0.66 0.66 1.32 1.32 2 2 C0.9802693 5.77300358 0.34127338 6.80206144 -3.125 8.8125 C-4.07375 9.204375 -5.0225 9.59625 -6 10 C-4.34832443 6.4213696 -2.21713508 3.25179812 0 0 Z M-9 10 C-8.01 10.33 -7.02 10.66 -6 11 C-8.75 16.875 -8.75 16.875 -11 18 C-11 15.69 -11 13.38 -11 11 C-10.34 10.67 -9.68 10.34 -9 10 Z " fill="#E3F9F1" transform="translate(111,155)"/>
<path d="M0 0 C-3.63580072 2.1387063 -7.47037068 2.85155994 -11.5625 3.625 C-12.57086914 3.82609375 -12.57086914 3.82609375 -13.59960938 4.03125 C-16.45182675 4.58639857 -19.08703506 5 -22 5 C-22 4.34 -22 3.68 -22 3 C-15.43083839 -0.70645357 -7.35553599 -0.13621363 0 0 Z " fill="#5BAFE8" transform="translate(408,468)"/>
<path d="M0 0 C0 3.55367934 -1.07252078 4.88054363 -3.37109375 7.5 C-6.15271727 10.06149504 -9.36052548 11.9508473 -13 13 C-15.24609375 12.59765625 -15.24609375 12.59765625 -17 12 C-16.19175781 11.46890625 -15.38351562 10.9378125 -14.55078125 10.390625 C-13.48214844 9.68421875 -12.41351563 8.9778125 -11.3125 8.25 C-10.25675781 7.55390625 -9.20101563 6.8578125 -8.11328125 6.140625 C-5.29705372 4.20424772 -2.6367115 2.17198499 0 0 Z " fill="#1F92DF" transform="translate(369,337)"/>
<path d="M0 0 C3.59065543 2.05821499 6.7917027 4.32574548 10 6.9375 C10.825 7.60652344 11.65 8.27554687 12.5 8.96484375 C13.7375 9.97224609 13.7375 9.97224609 15 11 C16.66553766 12.33474337 18.33188126 13.66848379 20 15 C16.83548038 14.36567062 14.48312221 13.26817072 11.75 11.5625 C11.04359375 11.13066406 10.3371875 10.69882812 9.609375 10.25390625 C9.07828125 9.84011719 8.5471875 9.42632812 8 9 C8 8.34 8 7.68 8 7 C6.8553125 7.1546875 6.8553125 7.1546875 5.6875 7.3125 C4.800625 7.209375 3.91375 7.10625 3 7 C1.18116991 4.6167054 0 3.04181663 0 0 Z " fill="#2491D7" transform="translate(122,333)"/>
<path d="M0 0 C0.99 0.33 1.98 0.66 3 1 C3 1.66 3 2.32 3 3 C3.66 3.33 4.32 3.66 5 4 C6.2890625 5.55859375 6.2890625 5.55859375 7.625 7.4375 C8.07101563 8.05496094 8.51703125 8.67242187 8.9765625 9.30859375 C10 11 10 11 10 13 C11.32 13.33 12.64 13.66 14 14 C14 15.32 14 16.64 14 18 C14.66 18 15.32 18 16 18 C15.67 18.99 15.34 19.98 15 21 C0 5.0625 0 5.0625 0 0 Z " fill="#A1E3F7" transform="translate(94,298)"/>
<path d="M0 0 C8.97437342 1.44231001 16.8011712 5.23759267 25 9 C21.78762947 10.07079018 20.0604445 9.95713639 16.9375 8.6875 C16.26589844 8.42324219 15.59429687 8.15898438 14.90234375 7.88671875 C13 7 13 7 10 5 C9.030625 4.690625 8.06125 4.38125 7.0625 4.0625 C4.15813675 3.05486377 2.3247621 1.96710639 0 0 Z " fill="#B6F2FB" transform="translate(310,105)"/>
<path d="M0 0 C13.30384961 7.07219892 13.30384961 7.07219892 14.8125 11.25 C14.874375 11.8275 14.93625 12.405 15 13 C14.34 12.67 13.68 12.34 13 12 C13 11.34 13 10.68 13 10 C11.865625 9.87625 10.73125 9.7525 9.5625 9.625 C7.7990625 9.315625 7.7990625 9.315625 6 9 C5.67 8.34 5.34 7.68 5 7 C4.34 7 3.68 7 3 7 C2.67 5.35 2.34 3.7 2 2 C1.34 2 0.68 2 0 2 C0 1.34 0 0.68 0 0 Z " fill="#1791E6" transform="translate(142,348)"/>
<path d="M0 0 C-0.33 1.32 -0.66 2.64 -1 4 C-1.90363281 4.06058594 -2.80726563 4.12117188 -3.73828125 4.18359375 C-4.91777344 4.26738281 -6.09726563 4.35117188 -7.3125 4.4375 C-9.07013672 4.55931641 -9.07013672 4.55931641 -10.86328125 4.68359375 C-14.02590958 4.8867371 -14.02590958 4.8867371 -17 6 C-17 5.34 -17 4.68 -17 4 C-11.19619269 1.3825967 -6.45057424 -0.18430212 0 0 Z " fill="#E2F9F4" transform="translate(192,106)"/>
<path d="M0 0 C0.83595703 0.00902344 1.67191406 0.01804687 2.53320312 0.02734375 C4.58475969 0.05079011 6.63616777 0.08665734 8.6875 0.125 C8.6875 0.455 8.6875 0.785 8.6875 1.125 C3.0775 1.125 -2.5325 1.125 -8.3125 1.125 C-8.3125 1.785 -8.3125 2.445 -8.3125 3.125 C-8.92738281 3.31835938 -9.54226562 3.51171875 -10.17578125 3.7109375 C-11.38814453 4.10152344 -11.38814453 4.10152344 -12.625 4.5 C-13.42550781 4.75523437 -14.22601563 5.01046875 -15.05078125 5.2734375 C-17.53974528 6.11331811 -17.53974528 6.11331811 -20.3125 8.125 C-21.3025 7.795 -22.2925 7.465 -23.3125 7.125 C-21.91885 6.32949608 -20.52246569 5.53878162 -19.125 4.75 C-17.95904297 4.08871094 -17.95904297 4.08871094 -16.76953125 3.4140625 C-10.90118276 0.33527871 -6.55005311 -0.13441309 0 0 Z " fill="#2491D8" transform="translate(209.3125,375.875)"/>
<path d="M0 0 C0.75410156 0.00451172 1.50820312 0.00902344 2.28515625 0.01367188 C4.14847127 0.02546501 6.01174555 0.04340058 7.875 0.0625 C7.875 0.3925 7.875 0.7225 7.875 1.0625 C6.88242188 1.18367188 5.88984375 1.30484375 4.8671875 1.4296875 C-4.14658786 2.53856036 -13.13928569 3.74272321 -22.125 5.0625 C-20.125 2.0625 -20.125 2.0625 -17.8125 1.5859375 C-16.925625 1.53695312 -16.03875 1.48796875 -15.125 1.4375 C-9.8957717 1.11827385 -5.34492332 -0.06000346 0 0 Z " fill="#2793DC" transform="translate(224.125,94.9375)"/>
<path d="M0 0 C2.49361571 1.20381448 4.68143083 2.45428722 7 4 C7 4.66 7 5.32 7 6 C7.99 6.33 8.98 6.66 10 7 C10 7.66 10 8.32 10 9 C10.66 9 11.32 9 12 9 C12.66 10.65 13.32 12.3 14 14 C14.66 14 15.32 14 16 14 C16.66 15.65 17.32 17.3 18 19 C13.0378548 15.12710619 9.03780077 10.81719023 5 6 C4.23042969 5.08541016 4.23042969 5.08541016 3.4453125 4.15234375 C2.29104272 2.77308919 1.14454883 1.38733192 0 0 Z " fill="#2B96DA" transform="translate(374,139)"/>
<path d="M0 0 C2.22775337 3.34163006 3.12738864 6.54712825 4.125 10.375 C4.30675781 11.035 4.48851562 11.695 4.67578125 12.375 C5.63494694 15.99530961 6.21694345 19.25410979 6 23 C1.12575864 15.68863795 0.41551982 8.59696174 0 0 Z " fill="#6BB9E7" transform="translate(466,95)"/>
<path d="M0 0 C2 1 2 1 2.81640625 3.03125 C3.06261719 3.8459375 3.30882812 4.660625 3.5625 5.5 C4.32548337 8.51331493 4.32548337 8.51331493 6 11 C6.23678716 13.69235776 6.42198025 16.36498156 6.5625 19.0625 C6.60568359 19.82111328 6.64886719 20.57972656 6.69335938 21.36132812 C6.79973633 23.24065438 6.90039934 25.12030244 7 27 C6.67 27 6.34 27 6 27 C5.18409943 23.62581286 4.3728913 20.25051419 3.5625 16.875 C3.33240234 15.92367187 3.10230469 14.97234375 2.86523438 13.9921875 C1.75164281 9.34415313 0.69333147 4.7337804 0 0 Z " fill="#2091DC" transform="translate(413,194)"/>
<path d="M0 0 C0.66 0 1.32 0 2 0 C0.17689912 7.5162931 -2.75813262 13.54796871 -7 20 C-8 17 -8 17 -7 14 C-6.34 14 -5.68 14 -5 14 C-5 12.35 -5 10.7 -5 9 C-4.01 9 -3.02 9 -2 9 C-1.855625 7.88625 -1.71125 6.7725 -1.5625 5.625 C-1 2 -1 2 0 0 Z " fill="#54A4E2" transform="translate(466,408)"/>
<path d="M0 0 C0.66 0 1.32 0 2 0 C0.55797524 4.15151338 -1.5010438 7.29978445 -4.125 10.8125 C-5.21167969 12.27623047 -5.21167969 12.27623047 -6.3203125 13.76953125 C-6.87460937 14.50558594 -7.42890625 15.24164063 -8 16 C-8.33 15.34 -8.66 14.68 -9 14 C-8.06421005 11.64018187 -7.06652192 9.30368736 -6 7 C-5.34 7 -4.68 7 -4 7 C-3.67 5.68 -3.34 4.36 -3 3 C-2.01 3 -1.02 3 0 3 C0 2.01 0 1.02 0 0 Z " fill="#98DBE9" transform="translate(402,296)"/>
<path d="M0 0 C-1.66289062 0.61488281 -1.66289062 0.61488281 -3.359375 1.2421875 C-4.82296029 1.78634101 -6.28649955 2.33061835 -7.75 2.875 C-8.47960937 3.14441406 -9.20921875 3.41382812 -9.9609375 3.69140625 C-14.23078669 5.27957929 -14.23078669 5.27957929 -18.328125 7.2578125 C-20 8 -20 8 -23 7 C-21.68 6.67 -20.36 6.34 -19 6 C-19 5.34 -19 4.68 -19 4 C-6.70691867 -1.87336108 -6.70691867 -1.87336108 0 0 Z " fill="#2290DA" transform="translate(187,105)"/>
<path d="M0 0 C-4.62 2.97 -9.24 5.94 -14 9 C-14.33 8.34 -14.66 7.68 -15 7 C-14.34 7 -13.68 7 -13 7 C-12.67 6.01 -12.34 5.02 -12 4 C-11.01 3.67 -10.02 3.34 -9 3 C-8.67 2.01 -8.34 1.02 -8 0 C-4.76565159 -1.33835107 -3.58579314 -0.89644829 0 0 Z " fill="#96DAE5" transform="translate(361,344)"/>
<path d="M0 0 C0.33 0 0.66 0 1 0 C0.85957123 1.64630328 0.71250671 3.29204179 0.5625 4.9375 C0.48128906 5.85402344 0.40007812 6.77054688 0.31640625 7.71484375 C0 10 0 10 -1 11 C-1.36760731 13.32817964 -1.70241581 15.6618385 -2 18 C-2.99 18.33 -3.98 18.66 -5 19 C-4.48378772 12.16018724 -2.51409031 6.36123316 0 0 Z " fill="#B7EBFA" transform="translate(85,193)"/>
<path d="M0 0 C0.66 0.66 1.32 1.32 2 2 C0.44210317 3.13136586 -1.12153857 4.25482321 -2.6875 5.375 C-3.55761719 6.00148438 -4.42773438 6.62796875 -5.32421875 7.2734375 C-7.83596952 8.89415843 -10.19299187 9.99858088 -13 11 C-13 9.68 -13 8.36 -13 7 C-9.535 6.505 -9.535 6.505 -6 6 C-6 4.35 -6 2.7 -6 1 C-5.34 1.66 -4.68 2.32 -4 3 C-3.01 3 -2.02 3 -1 3 C-0.67 2.01 -0.34 1.02 0 0 Z " fill="#53A9E4" transform="translate(433,452)"/>
<path d="M0 0 C1.08622755 3.25868265 0.91122669 4.39204274 0.22265625 7.66796875 C0.03896484 8.56064453 -0.14472656 9.45332031 -0.33398438 10.37304688 C-0.63272461 11.76620117 -0.63272461 11.76620117 -0.9375 13.1875 C-1.13279297 14.12787109 -1.32808594 15.06824219 -1.52929688 16.03710938 C-2.01265881 18.35960454 -2.5031383 20.68036206 -3 23 C-3.33 23 -3.66 23 -4 23 C-4.02685938 20.85423363 -4.04633088 18.70837355 -4.0625 16.5625 C-4.07410156 15.36753906 -4.08570312 14.17257813 -4.09765625 12.94140625 C-4 10 -4 10 -3 9 C-2.63239269 6.67182036 -2.29758419 4.3381615 -2 2 C-1.34 2 -0.68 2 0 2 C0 1.34 0 0.68 0 0 Z " fill="#1E90DE" transform="translate(81,201)"/>
<path d="M0 0 C0.55784577 3.79335122 0.00549633 4.99183402 -2.1875 8.25 C-5.13396688 11.13098984 -6.11148791 11.45103359 -10 12 C-9.06692579 10.55962331 -8.12834923 9.12281015 -7.1875 7.6875 C-6.66542969 6.88699219 -6.14335938 6.08648437 -5.60546875 5.26171875 C-1.87046632 0 -1.87046632 0 0 0 Z " fill="#BEEFF8" transform="translate(110,154)"/>
<path d="M0 0 C5.37722282 2.50318993 9.59391956 5.03452761 14 9 C9.79238221 10.40253926 7.88264416 8.90602531 4 7 C3.34 6.34 2.68 5.68 2 5 C2 4.01 2 3.02 2 2 C1.34 2 0.68 2 0 2 C0 1.34 0 0.68 0 0 Z " fill="#B7EFF8" transform="translate(352,124)"/>
<path d="M0 0 C-1.42893505 3.58770251 -3.01508697 4.96510596 -6.375 6.8125 C-7.14585938 7.25207031 -7.91671875 7.69164062 -8.7109375 8.14453125 C-11.31101605 9.11623296 -12.43992191 8.95272312 -15 8 C-14.34 8 -13.68 8 -13 8 C-13 7.34 -13 6.68 -13 6 C-11.21118264 4.99491199 -9.41885304 3.99607264 -7.625 3 C-6.62726563 2.443125 -5.62953125 1.88625 -4.6015625 1.3125 C-2 0 -2 0 0 0 Z " fill="#5FB1E8" transform="translate(82,44)"/>
<path d="M0 0 C5.89126992 1.55033419 11.02060001 4.54911639 16 8 C16.33 8.66 16.66 9.32 17 10 C16.28199219 9.70867188 15.56398438 9.41734375 14.82421875 9.1171875 C13.02559953 8.40570051 11.21626181 7.72034529 9.39453125 7.0703125 C8.54246094 6.75835937 7.69039063 6.44640625 6.8125 6.125 C5.95269531 5.81820312 5.09289062 5.51140625 4.20703125 5.1953125 C1.6301023 3.79966602 1.01126246 2.70046624 0 0 Z " fill="#6AB5E9" transform="translate(416,43)"/>
<path d="M0 0 C1.423125 0.2784375 1.423125 0.2784375 2.875 0.5625 C5.89868793 1.28686632 5.89868793 1.28686632 8 0 C10.125 0.9375 10.125 0.9375 12 2 C7 3.66666667 2 5.33333333 -3 7 C-2.01 4.69 -1.02 2.38 0 0 Z " fill="#ACE3CF" transform="translate(314,360)"/>
<path d="M0 0 C1.32 0 2.64 0 4 0 C3.53328373 5.41390868 2.75702189 9.20517932 0 14 C-1.10370043 10.6888987 -0.92673641 8.75251051 -0.5625 5.3125 C-0.46066406 4.31863281 -0.35882813 3.32476562 -0.25390625 2.30078125 C-0.17011719 1.54152344 -0.08632812 0.78226563 0 0 Z " fill="#128FEF" transform="translate(89,172)"/>
<path d="M0 0 C0 4.33174693 -2.65822583 6.22353653 -5.5 9.1875 C-6.28697266 10.02571289 -6.28697266 10.02571289 -7.08984375 10.88085938 C-8.38661613 12.26015364 -9.69246259 13.63090644 -11 15 C-11.66 14.67 -12.32 14.34 -13 14 C-11.58474822 12.41540185 -10.1677358 10.83237609 -8.75 9.25 C-7.96109375 8.36828125 -7.1721875 7.4865625 -6.359375 6.578125 C-4.29407328 4.32133835 -2.18264936 2.14260074 0 0 Z " fill="#C5E3DE" transform="translate(172,371)"/>
<path d="M0 0 C2 3 2 3 1.625 5.1875 C1.41875 5.785625 1.2125 6.38375 1 7 C0.34 7 -0.32 7 -1 7 C-1 6.34 -1 5.68 -1 5 C-2.1446875 5.495 -2.1446875 5.495 -3.3125 6 C-6 7 -6 7 -9 7 C-9 6.34 -9 5.68 -9 5 C-8.071875 4.54625 -7.14375 4.0925 -6.1875 3.625 C-2.96078611 2.0578367 -2.96078611 2.0578367 0 0 Z " fill="#E7F9F4" transform="translate(141,129)"/>
<path d="M0 0 C7.62595318 -0.45755719 14.6029854 1.25463701 22 3 C22 3.33 22 3.66 22 4 C19.64499052 3.88482579 17.29150927 3.75812022 14.9375 3.625 C13.62652344 3.55539063 12.31554687 3.48578125 10.96484375 3.4140625 C7.01863043 3.00194564 3.75882927 2.20243433 0 1 C0 0.67 0 0.34 0 0 Z " fill="#B8F1FD" transform="translate(274,97)"/>
<path d="M0 0 C3.12290635 0.48578543 5.99580359 0.9986012 9 2 C9.99 2 10.98 2 12 2 C12.33 3.65 12.66 5.3 13 7 C11.68 7 10.36 7 9 7 C9 6.01 9 5.02 9 4 C6.03 3.01 3.06 2.02 0 1 C0 0.67 0 0.34 0 0 Z " fill="#AFDBD1" transform="translate(140,344)"/>
<path d="M0 0 C0.66 0.33 1.32 0.66 2 1 C-6.07744875 9.81548975 -6.07744875 9.81548975 -12 11 C-9.4144983 6.59507117 -7.83564553 4.61188184 -3 3 C-1.22722741 1.47992158 -1.22722741 1.47992158 0 0 Z " fill="#BEDCD7" transform="translate(165,381)"/>
<path d="M0 0 C4.92908146 3.87792288 8.5423711 7.76116833 12 13 C11.67 13.66 11.34 14.32 11 15 C9.5 13.625 9.5 13.625 8 12 C8 11.34 8 10.68 8 10 C7.01 9.67 6.02 9.34 5 9 C2.80585815 6.03145515 1.1694002 3.50820059 0 0 Z " fill="#A7ECFA" transform="translate(387,154)"/>
<path d="M0 0 C0.66 0.33 1.32 0.66 2 1 C0.625 2.5 0.625 2.5 -1 4 C-1.66 4 -2.32 4 -3 4 C-3.33 4.99 -3.66 5.98 -4 7 C-6.875 9.75 -6.875 9.75 -10 12 C-10.99 11.67 -11.98 11.34 -13 11 C-11.39801112 9.53927468 -9.79332884 8.08150284 -8.1875 6.625 C-7.29417969 5.81289062 -6.40085937 5.00078125 -5.48046875 4.1640625 C-3 2 -3 2 0 0 Z " fill="#B6EFFC" transform="translate(130,134)"/>
<path d="M0 0 C2.64 0.33 5.28 0.66 8 1 C8 1.99 8 2.98 8 4 C8.66 4.33 9.32 4.66 10 5 C6.06329512 6.31223496 3.87511856 5.24296256 0 4 C0 2.68 0 1.36 0 0 Z " fill="#DCF7EF" transform="translate(329,114)"/>
<path d="M0 0 C0.99 0.33 1.98 0.66 3 1 C3.8125 2.8125 3.8125 2.8125 4 5 C3.0625 7.25 3.0625 7.25 2 9 C1.67 9 1.34 9 1 9 C0.67 6.03 0.34 3.06 0 0 Z M-1 9 C-0.01 9.495 -0.01 9.495 1 10 C0.01 10.495 0.01 10.495 -1 11 C-1 10.34 -1 9.68 -1 9 Z M-2 11 C-1.34 11.66 -0.68 12.32 0 13 C-0.99 13.495 -0.99 13.495 -2 14 C-2 13.01 -2 12.02 -2 11 Z " fill="#E3F9F1" transform="translate(83,204)"/>
<path d="M0 0 C1.32 0 2.64 0 4 0 C4.33 0.66 4.66 1.32 5 2 C6.88013106 3.12224855 6.88013106 3.12224855 9.0625 4.125 C9.79597656 4.47820312 10.52945313 4.83140625 11.28515625 5.1953125 C12.13400391 5.59363281 12.13400391 5.59363281 13 6 C10.34501768 7.0169313 9.30844625 7.13022151 6.640625 6.00390625 C5.85171875 5.52824219 5.0628125 5.05257813 4.25 4.5625 C3.45078125 4.08941406 2.6515625 3.61632812 1.828125 3.12890625 C1.22484375 2.75636719 0.6215625 2.38382812 0 2 C0 1.34 0 0.68 0 0 Z " fill="#53A0E1" transform="translate(77,460)"/>
<path d="M0 0 C-4.95 2.97 -4.95 2.97 -10 6 C-10 4.02 -10 2.04 -10 0 C-6.05523353 -0.80688405 -4.00001715 -1.00000429 0 0 Z " fill="#9BDAE2" transform="translate(186,384)"/>
<path d="M0 0 C3.63 0 7.26 0 11 0 C11 0.66 11 1.32 11 2 C11.99 2.33 12.98 2.66 14 3 C9.05 2.67 4.1 2.34 -1 2 C-0.67 1.34 -0.34 0.68 0 0 Z " fill="#A2D7CF" transform="translate(205,372)"/>
<path d="M0 0 C4.05348042 0.50895718 5.57539594 2.4365974 8.125 5.5 C10.68606563 8.72377665 10.68606563 8.72377665 14 11 C13.67 11.66 13.34 12.32 13 13 C8.18876004 8.96476648 3.86757281 4.95532767 0 0 Z " fill="#8CD8F5" transform="translate(112,322)"/>
<path d="M0 0 C0 0.99 0 1.98 0 3 C-1.64453125 4.421875 -1.64453125 4.421875 -3.8125 5.75 C-4.52019531 6.19859375 -5.22789062 6.6471875 -5.95703125 7.109375 C-8 8 -8 8 -11 7 C-9.54634731 5.82750647 -8.08692581 4.66216184 -6.625 3.5 C-5.40683594 2.52546875 -5.40683594 2.52546875 -4.1640625 1.53125 C-2 0 -2 0 0 0 Z " fill="#C4F0FA" transform="translate(143,126)"/>
<path d="M0 0 C0 0.66 0 1.32 0 2 C-3.08809695 3.76462683 -4.23312136 4 -8 4 C-8 4.66 -8 5.32 -8 6 C-10.31 6.33 -12.62 6.66 -15 7 C-12.61666905 4.25484323 -10.31090681 3.10919982 -6.9375 1.8125 C-6.05964844 1.46832031 -5.18179688 1.12414062 -4.27734375 0.76953125 C-2 0 -2 0 0 0 Z " fill="#B4F0FC" transform="translate(171,111)"/>
<path d="M0 0 C0.99 0 1.98 0 3 0 C3.8125 1.6875 3.8125 1.6875 4 4 C1.5625 6.75 1.5625 6.75 -1 9 C-1 8.01 -1 7.02 -1 6 C-1.0309375 4.700625 -1.0309375 4.700625 -1.0625 3.375 C-1 1 -1 1 0 0 Z " fill="#40A6EA" transform="translate(454,426)"/>
<path d="M0 0 C6.38596491 0.49122807 6.38596491 0.49122807 9.1875 2.8125 C10.0846875 3.8953125 10.0846875 3.8953125 11 5 C11.7425 5.7425 12.485 6.485 13.25 7.25 C13.8275 7.8275 14.405 8.405 15 9 C11.32305352 7.62859834 8.04681411 5.96304199 4.6875 3.9375 C3.80449219 3.41027344 2.92148437 2.88304688 2.01171875 2.33984375 C1.34785156 1.89769531 0.68398438 1.45554687 0 1 C0 0.67 0 0.34 0 0 Z " fill="#2592DD" transform="translate(345,119)"/>
<path d="M0 0 C3.0390625 -0.29296875 3.0390625 -0.29296875 6.625 -0.1875 C7.81351563 -0.16042969 9.00203125 -0.13335937 10.2265625 -0.10546875 C11.14179688 -0.07066406 12.05703125 -0.03585938 13 0 C9.62487485 3.37512515 5.1626118 2.9788616 0.5625 3.0625 C-0.7059375 3.0315625 -0.7059375 3.0315625 -2 3 C-1.34 2.01 -0.68 1.02 0 0 Z " fill="#DDFAF8" transform="translate(209,99)"/>
<path d="M0 0 C5.70992843 1.08760541 7.74430808 3.77513112 10.8984375 8.3203125 C11.44371094 9.15175781 11.44371094 9.15175781 12 10 C9.50638429 8.79618552 7.31856917 7.54571278 5 6 C5 5.34 5 4.68 5 4 C4.34 4 3.68 4 3 4 C3 3.34 3 2.68 3 2 C2.01 1.67 1.02 1.34 0 1 C0 0.67 0 0.34 0 0 Z " fill="#72BFE6" transform="translate(54,444)"/>
<path d="M0 0 C1.65 0.33 3.3 0.66 5 1 C3.48699734 4.02600532 1.00173218 4.58742015 -2 6 C-2.78375 6.391875 -3.5675 6.78375 -4.375 7.1875 C-4.91125 7.455625 -5.4475 7.72375 -6 8 C-4.625 5.5 -4.625 5.5 -3 3 C-2.34 3 -1.68 3 -1 3 C-0.67 2.01 -0.34 1.02 0 0 Z " fill="#B2E3D5" transform="translate(333,353)"/>
<path d="M0 0 C0.71542969 0.28746094 1.43085937 0.57492187 2.16796875 0.87109375 C2.71066406 1.09925781 3.25335938 1.32742188 3.8125 1.5625 C3.8125 1.8925 3.8125 2.2225 3.8125 2.5625 C0.5125 2.5625 -2.7875 2.5625 -6.1875 2.5625 C-6.5175 1.5725 -6.8475 0.5825 -7.1875 -0.4375 C-3.77818103 -1.57393966 -3.18414544 -1.30497764 0 0 Z " fill="#1D90EB" transform="translate(96.1875,465.4375)"/>
<path d="M0 0 C0.66 0.33 1.32 0.66 2 1 C-3.91684902 5.90153173 -3.91684902 5.90153173 -8.4375 6.3125 C-9.283125 6.209375 -10.12875 6.10625 -11 6 C-7.57874946 3.12614955 -4.16111563 1.54115394 0 0 Z " fill="#2193DC" transform="translate(171,393)"/>
<path d="M0 0 C0.44859375 0.45761719 0.8971875 0.91523438 1.359375 1.38671875 C3.04470397 3.09705124 3.04470397 3.09705124 5.25 4.8125 C7 7 7 7 6.75 10.25 C6.5025 11.1575 6.255 12.065 6 13 C2.57068046 9.2440786 1.43570917 4.76533255 0 0 Z " fill="#C7EDE9" transform="translate(87,279)"/>
<path d="M0 0 C0 3.99626903 -1.81747873 5.7262181 -4 9 C-5.32 8.67 -6.64 8.34 -8 8 C-5.92856799 3.96615872 -4.03384128 2.07143201 0 0 Z " fill="#DEF8F2" transform="translate(122,143)"/>
<path d="M0 0 C0 0.66 0 1.32 0 2 C-1.17369141 2.18175781 -1.17369141 2.18175781 -2.37109375 2.3671875 C-3.38300781 2.53476562 -4.39492187 2.70234375 -5.4375 2.875 C-6.44683594 3.03742187 -7.45617187 3.19984375 -8.49609375 3.3671875 C-9.32238281 3.57601562 -10.14867188 3.78484375 -11 4 C-11.33 4.66 -11.66 5.32 -12 6 C-12.66 5.34 -13.32 4.68 -14 4 C-12.42032193 3.32471777 -10.83608097 2.66010306 -9.25 2 C-8.36828125 1.62875 -7.4865625 1.2575 -6.578125 0.875 C-4 0 -4 0 0 0 Z " fill="#69B3E5" transform="translate(96,39)"/>
<path d="M0 0 C-4.62197306 2.21854707 -7.76824163 3.38281159 -13 3 C-12.01 2.67 -11.02 2.34 -10 2 C-10 1.34 -10 0.68 -10 0 C-6.33694766 -0.74926071 -3.57644848 -1.2380014 0 0 Z " fill="#1890E0" transform="translate(290,376)"/>
<path d="M0 0 C0.33 0 0.66 0 1 0 C0.67 2.31 0.34 4.62 0 7 C-0.66 7 -1.32 7 -2 7 C-2.33 7.99 -2.66 8.98 -3 10 C-4 5.25 -4 5.25 -4 3 C-3.01 3 -2.02 3 -1 3 C-0.67 2.01 -0.34 1.02 0 0 Z " fill="#B1E2D5" transform="translate(404,289)"/>
<path d="M0 0 C0.66 0.33 1.32 0.66 2 1 C-2.30769231 6.78461538 -2.30769231 6.78461538 -5.8125 7.875 C-6.8953125 7.936875 -6.8953125 7.936875 -8 8 C-5.58443874 4.80800833 -3.31996462 2.25283313 0 0 Z " fill="#6AB6E9" transform="translate(65,53)"/>
<path d="M0 0 C-0.47202486 4.24822374 -2.96655518 6.19989709 -6 9 C-5.38983051 3.50847458 -5.38983051 3.50847458 -3.5625 1.125 C-2 0 -2 0 0 0 Z " fill="#5DAFE3" transform="translate(453,434)"/>
<path d="M0 0 C0.66 0.33 1.32 0.66 2 1 C-0.64 3.97 -3.28 6.94 -6 10 C-6 6.36672806 -5.04413589 4.95264073 -3 2 C-2.01 1.34 -1.02 0.68 0 0 Z " fill="#1D8DDF" transform="translate(152,379)"/>
<path d="M0 0 C0.99 0.33 1.98 0.66 3 1 C1.16536528 3.53354319 -0.63248912 5.94129488 -3 8 C-3.66 8 -4.32 8 -5 8 C-3.62845496 5.04590299 -2.01136276 2.55991624 0 0 Z " fill="#C9ECF9" transform="translate(157,375)"/>
<path d="M0 0 C1.18771723 3.42943519 0.80226223 5.37784675 -0.4375 8.75 C-0.86869141 9.94882812 -0.86869141 9.94882812 -1.30859375 11.171875 C-1.53675781 11.77515625 -1.76492188 12.3784375 -2 13 C-4 10 -4 10 -3.57421875 7.7734375 C-3.28160156 6.98195313 -2.98898437 6.19046875 -2.6875 5.375 C-2.40261719 4.57835937 -2.11773437 3.78171875 -1.82421875 2.9609375 C-1 1 -1 1 0 0 Z " fill="#AFE5DC" transform="translate(414,264)"/>
<path d="M0 0 C0.66 0 1.32 0 2 0 C1.52797514 4.24822374 -0.96655518 6.19989709 -4 9 C-4 7.02 -4 5.04 -4 3 C-2.68 3 -1.36 3 0 3 C0 2.01 0 1.02 0 0 Z " fill="#1790E8" transform="translate(117,141)"/>
<path d="M0 0 C0.66 0.33 1.32 0.66 2 1 C1.67 3.31 1.34 5.62 1 8 C0.34 8 -0.32 8 -1 8 C-2.625 6 -2.625 6 -4 4 C-2.68 2.68 -1.36 1.36 0 0 Z " fill="#E6F9F1" transform="translate(127,138)"/>
<path d="M0 0 C-1.62249941 0.83819158 -3.24808497 1.6704116 -4.875 2.5 C-6.23238281 3.19609375 -6.23238281 3.19609375 -7.6171875 3.90625 C-10 5 -10 5 -12 5 C-12 4.34 -12 3.68 -12 3 C-11.34 3 -10.68 3 -10 3 C-10 2.34 -10 1.68 -10 1 C-6.16112237 -0.48320272 -3.93795909 -1.22419163 0 0 Z " fill="#1E90DB" transform="translate(164,114)"/>
<path d="M0 0 C0.33 0 0.66 0 1 0 C1.21192221 5.19209404 0.5912689 9.126739 -1 14 C-1.33 14 -1.66 14 -2 14 C-2.1799928 8.78020872 -1.97094808 4.92737019 0 0 Z " fill="#2890DB" transform="translate(31,106)"/>
<path d="M0 0 C0.33 0 0.66 0 1 0 C1 2.64 1 5.28 1 8 C0.34 8 -0.32 8 -1 8 C-1.33 9.98 -1.66 11.96 -2 14 C-2.33 14 -2.66 14 -3 14 C-2.48594831 9.03083364 -1.76615118 4.70973649 0 0 Z " fill="#8FCBEE" transform="translate(32,98)"/>
<path d="M0 0 C-1.60256108 0.50512244 -3.20711792 1.00391627 -4.8125 1.5 C-6.15248047 1.91765625 -6.15248047 1.91765625 -7.51953125 2.34375 C-10 3 -10 3 -13 3 C-12.67 2.01 -12.34 1.02 -12 0 C-3.96428571 -1.20535714 -3.96428571 -1.20535714 0 0 Z " fill="#2391DB" transform="translate(200,101)"/>
<path d="M0 0 C0.99 0.495 0.99 0.495 2 1 C2 1.66 2 2.32 2 3 C2.66 3 3.32 3 4 3 C4 3.66 4 4.32 4 5 C4.66 5 5.32 5 6 5 C6.66 6.32 7.32 7.64 8 9 C6.68 9 5.36 9 4 9 C0 2.25 0 2.25 0 0 Z " fill="#65B4E7" transform="translate(446,64)"/>
<path d="M0 0 C0.66 0 1.32 0 2 0 C2 1.32 2 2.64 2 4 C0.02 4.33 -1.96 4.66 -4 5 C-4 5.66 -4 6.32 -4 7 C-4.66 6.67 -5.32 6.34 -6 6 C-4 4 -2 2 0 0 Z " fill="#ACE1DC" transform="translate(174,386)"/>
<path d="M0 0 C-0.33 1.32 -0.66 2.64 -1 4 C-5.75 5.125 -5.75 5.125 -8 4 C-2.25 0 -2.25 0 0 0 Z " fill="#C4F3FB" transform="translate(151,121)"/>
<path d="M0 0 C1.48484412 0.39595843 2.9628831 0.81750706 4.4375 1.25 C5.26121094 1.48203125 6.08492187 1.7140625 6.93359375 1.953125 C9 3 9 3 9.78515625 5.109375 C9.85605469 5.73328125 9.92695313 6.3571875 10 7 C6.42032008 5.34784004 3.22017048 3.26875648 0 1 C0 0.67 0 0.34 0 0 Z " fill="#90D5EB" transform="translate(145,349)"/>
<path d="M0 0 C4.8 2.46153846 4.8 2.46153846 5.8125 5.1875 C5.874375 5.785625 5.93625 6.38375 6 7 C4.125 6.875 4.125 6.875 2 6 C0.75 2.9375 0.75 2.9375 0 0 Z " fill="#1A92E5" transform="translate(122,333)"/>
<path d="M0 0 C2.475 0.495 2.475 0.495 5 1 C5.33 1.99 5.66 2.98 6 4 C6.99 4.33 7.98 4.66 9 5 C9 5.66 9 6.32 9 7 C7.02 6.34 5.04 5.68 3 5 C3 4.01 3 3.02 3 2 C2.01 1.67 1.02 1.34 0 1 C0 0.67 0 0.34 0 0 Z " fill="#ABE1E2" transform="translate(123,331)"/>
<path d="M0 0 C3.04049801 3.64859761 4.96518762 7.7444533 7 12 C6.34 12 5.68 12 5 12 C2.16741821 9.02149733 0.12535682 6.1783541 -0.3125 2.0625 C-0.209375 1.381875 -0.10625 0.70125 0 0 Z " fill="#2894DB" transform="translate(91,293)"/>
<path d="M0 0 C2.475 0.495 2.475 0.495 5 1 C5.33 1.99 5.66 2.98 6 4 C6.99 4.33 7.98 4.66 9 5 C8.67 5.66 8.34 6.32 8 7 C6.66382648 6.02471263 5.3311249 5.04466681 4 4.0625 C3.2575 3.51722656 2.515 2.97195312 1.75 2.41015625 C1.1725 1.94480469 0.595 1.47945312 0 1 C0 0.67 0 0.34 0 0 Z " fill="#2392DD" transform="translate(365,132)"/>
<path d="M0 0 C1.98 0 3.96 0 6 0 C4.02 2.97 4.02 2.97 2 6 C1.01 5.67 0.02 5.34 -1 5 C-0.67 3.35 -0.34 1.7 0 0 Z " fill="#B0E6D1" transform="translate(377,321)"/>
<path d="M0 0 C0.33 0 0.66 0 1 0 C1 2.64 1 5.28 1 8 C-0.32 8.33 -1.64 8.66 -3 9 C-2.01 6.03 -1.02 3.06 0 0 Z " fill="#B5EDF8" transform="translate(89,184)"/>
<path d="M0 0 C1.98 0 3.96 0 6 0 C6.33 1.32 6.66 2.64 7 4 C4.625 3.6875 4.625 3.6875 2 3 C1.34 2.01 0.68 1.02 0 0 Z " fill="#158BDF" transform="translate(63,450)"/>
<path d="M0 0 C3 1.75 3 1.75 6 4 C6 5.32 6 6.64 6 8 C5.67 7.34 5.34 6.68 5 6 C4.34 6 3.68 6 3 6 C0 2.53846154 0 2.53846154 0 0 Z " fill="#71BEE6" transform="translate(47,435)"/>
<path d="M0 0 C2.4375 0.75 2.4375 0.75 5 2 C5.8125 4.125 5.8125 4.125 6 6 C5.01 6 4.02 6 3 6 C0 2.66666667 0 2.66666667 0 0 Z " fill="#5EB6E8" transform="translate(41,427)"/>
<path d="M0 0 C3.36591866 1.44253657 5.51047079 3.33264727 8 6 C7.67 6.66 7.34 7.32 7 8 C6.67 7.01 6.34 6.02 6 5 C2.99152582 3.77479736 2.99152582 3.77479736 0 3 C0 2.01 0 1.02 0 0 Z " fill="#2994D6" transform="translate(149,353)"/>
<path d="M0 0 C0.66 1.32 1.32 2.64 2 4 C0.35 4.33 -1.3 4.66 -3 5 C-3.33 5.99 -3.66 6.98 -4 8 C-4.33 7.01 -4.66 6.02 -5 5 C-3.35 3.35 -1.7 1.7 0 0 Z " fill="#B3E4D5" transform="translate(372,328)"/>
<path d="M0 0 C0.33 1.32 0.66 2.64 1 4 C-0.4375 6.25 -0.4375 6.25 -2 8 C-2.99 7.67 -3.98 7.34 -5 7 C-3.35 4.69 -1.7 2.38 0 0 Z " fill="#B3ECFA" transform="translate(99,167)"/>
<path d="M0 0 C0 0.99 0 1.98 0 3 C-2.97 2.67 -5.94 2.34 -9 2 C-5.23312136 0.11656068 -3.97041037 -0.22057835 0 0 Z " fill="#E3FAF9" transform="translate(165,117)"/>
<path d="M0 0 C7.38461538 -0.36923077 7.38461538 -0.36923077 10.5 1.5 C10.995 1.995 11.49 2.49 12 3 C3.42857143 2.14285714 3.42857143 2.14285714 0 0 Z " fill="#85C6ED" transform="translate(92,468)"/>
<path d="M0 0 C0.66 0 1.32 0 2 0 C1.67 1.65 1.34 3.3 1 5 C-0.32 5 -1.64 5 -3 5 C-1.125 1.125 -1.125 1.125 0 0 Z " fill="#B2E2CC" transform="translate(360,338)"/>
<path d="M0 0 C1.258125 0.12375 2.51625 0.2475 3.8125 0.375 C4.87404297 0.47941406 4.87404297 0.47941406 5.95703125 0.5859375 C8 1 8 1 11 3 C9 4 9 4 5.5 3.1875 C2 2 2 2 0 0 Z " fill="#DDF8F5" transform="translate(270,97)"/>
<path d="M0 0 C0.33 0 0.66 0 1 0 C0.25 7.625 0.25 7.625 -2 11 C-2.28571429 3.57142857 -2.28571429 3.57142857 0 0 Z " fill="#6CC0F1" transform="translate(470,396)"/>
<path d="M0 0 C0.66 0.33 1.32 0.66 2 1 C-2.75 5.875 -2.75 5.875 -5 7 C-3.70700306 4.11562221 -2.34058637 2.12780579 0 0 Z " fill="#0C8DEC" transform="translate(372,336)"/>
<path d="M0 0 C2.95929119 2.75520215 5.03681826 5.46627288 7 9 C5.1875 8.875 5.1875 8.875 3 8 C0 2.96428571 0 2.96428571 0 0 Z " fill="#2C98DD" transform="translate(98,305)"/>
<path d="M0 0 C1.32 0.33 2.64 0.66 4 1 C-1.75 5 -1.75 5 -4 5 C-4 4.01 -4 3.02 -4 2 C-2.68 2 -1.36 2 0 2 C0 1.34 0 0.68 0 0 Z " fill="#2394DC" transform="translate(148,119)"/>
<path d="M0 0 C0.33 0.66 0.66 1.32 1 2 C-0.65 3.98 -2.3 5.96 -4 8 C-4 4.87099787 -3.57548683 3.62581138 -2 1 C-1.34 0.67 -0.68 0.34 0 0 Z " fill="#58A6E3" transform="translate(42,80)"/>
<path d="M0 0 C3.36591866 1.44253657 5.51047079 3.33264727 8 6 C2.25 4.125 2.25 4.125 0 3 C0 2.01 0 1.02 0 0 Z " fill="#65B8E6" transform="translate(433,53)"/>
<path d="M0 0 C1.98 0.99 3.96 1.98 6 3 C5.67 3.99 5.34 4.98 5 6 C5 5.34 5 4.68 5 4 C3.68 4.33 2.36 4.66 1 5 C0.67 3.35 0.34 1.7 0 0 Z " fill="#1A8DE4" transform="translate(427,50)"/>
</svg>
